<svg xmlns="http://www.w3.org/2000/svg" viewBox="0 0 273.23 193.51"><defs><style>.cls-1{fill:none;stroke:#ddd8bf;stroke-miterlimit:10}</style></defs><g id="Layer_2" data-name="Layer 2"><g id="Layer_2-2" data-name="Layer 2"><path class="cls-1" d="M0 .5h132.96l72.55 107.89m0 0l21.26 32.21h37.22m1.6-6.86l6.92 6.86-6.92 6.52"/><circle class="cls-1" cx="57.76" cy="115.59" r="23.33"/><circle class="cls-1" cx="58.15" cy="116.04" r="12.72"/><path class="cls-1" d="M47.38 122.79l-9.41 4.9.42 65.81m31.15-83.12l9.17-4.93m-30.01 9.62v2.07m19-2.07v2.07m-9 7.93v2.07m0-21.07v2.07m2.69 2.11l-5.66 4v9.37l5.66-5.1v-8.27z"/><path class="cls-1" d="M57.51 115.53h2.2v2.31h-2.2zm2.2 23.32l.78 54.65m19.87-71.99v71.99"/></g></g></svg>