<svg xmlns="http://www.w3.org/2000/svg" viewBox="0 0 341.64 273.73"><defs><style>.cls-1{fill:none;stroke:#f0ebdc;stroke-miterlimit:10}.cls-4{fill:#9d4c23}.cls-5{fill:#fffefe}.cls-6{fill:#dcd3ba}.cls-7{fill:#dcd4bb}.cls-8{fill:#dcd4bc}.cls-9{fill:#fefefd}.cls-10{fill:#dcd3bb}.cls-11{fill:#fefdfc}.cls-13{fill:#fdfcfa}.cls-22{fill:#e7e1d1}.cls-25{fill:#fff}.cls-26{fill:#fefdfb}</style></defs><g id="Layer_2" data-name="Layer 2"><g id="Layer_2-2" data-name="Layer 2"><path class="cls-1" d="M300.78 68.22L1.39 272.23M300.78 69.22l-42.85 58.83-19.27 26.45-65.29 89.65M300.78 69.63l-39.15 80.73"/><path class="cls-1" d="M300.78 0v244.15H41.63V42.33M0 177.6h41.63"/><path class="cls-1" d="M216.71 62.96l19.06 4.28 105.86.55M1.43 42.74l110.38-.58 27.25 5.32M1.39 273.23l44.44-.43M300.78 69.22L45.83 272.8M300.78 69.22l-42.41 174.93m-3.79-79.65l-38.62 79.65m84.82-174.93L126.36 244.15"/><path d="M140.17 208.27v-.21a.62.62 0 01.13-.42.45.45 0 01.26-.12 6.3 6.3 0 011.8.47.23.23 0 010 .28z" fill="#f7f2ec"/><path d="M142.36 208.27v-.17a.75.75 0 011.21 0v.18z" fill="#e7d1c0"/><path class="cls-4" d="M139.57 111.81c-1.36-.07-1.36-.07-1.36 1.33v8.78c0 .68-.12.93-.81.93-2.44 0-2.44 0-2.44-2.6V97.06c0-.82.15-1.12 1-1.08 3 .13 6-.16 8.94.2a6.89 6.89 0 016 5.54c.75 3.52-.33 7-2.71 8.65a5.84 5.84 0 01-2.37 1c-.45.09-.59.27-.36.79 2.32 5.29 4.59 10.6 6.93 15.88 1.09 2.47 2.83 3.44 5.36 3.07.71-.1.74.19.74.79 0 2.41 0 2.41-2.22 2.42-3.6 0-5.74-2.23-7.17-5.51-2.32-5.32-4.62-10.66-6.86-16-.38-.9-.82-1.21-1.64-1-.36.35-.69.19-1.03 0zm105.16 39.45v15.49c0 1-.2 1.23-1.09 1.2-2-.08-2 0-2-2.15v-23.4c0-.43-.33-1.17.34-1.26s1.41-.31 2 .51c1.65 2.34 3.37 4.64 5.07 6.94q3.39 4.6 6.79 9.19c.61.2.76.8 1 1.32l1 1.59c.37-.2.2-.53.2-.77 0-6.57 0-13.13-.07-19.7-.05-3.74-1.43-6.34-4.59-7.8-.12-.06-.33-.15-.32-.2A7.16 7.16 0 01254 130c.21-.41.58-.14.88 0a10.16 10.16 0 016 7.11 18.6 18.6 0 01.35 5.16c0 8.12 0 16.24-.08 24.36 0 .44.32 1.18-.3 1.29s-1.42.35-2-.48c-1.43-2-2.92-4-4.38-6l-9.36-12.77-.33-.41V150c.14.39.33.83-.05 1.26zM119.1 141.08c3.18.1 6.37-.19 9.55.17a5.87 5.87 0 015.3 4.2 7.07 7.07 0 01-1.54 7.35 6.56 6.56 0 01-.62.53 7.12 7.12 0 013.69 5.11c.78 4.7-1.33 8.55-5.84 9.28-2.77.45-5.56.12-8.35.2h-2.19a1.86 1.86 0 01-.36-1.41v-24a1.89 1.89 0 01.36-1.43zM206.73 96a10.57 10.57 0 001.78 0c1.08-.18 1.22.34 1.21 1.37v22.62a11 11 0 010 1.41c-.07.48.33 1.27-.29 1.39a1.78 1.78 0 01-2.13-.61c-4.34-6-8.74-12-13.12-17.93-.24-.33-.5-.64-.89-1.15a5.86 5.86 0 00.08 1.78.89.89 0 01.18.8 6.68 6.68 0 00-.27 3.07v13c0 .38.13.79-.14 1.14-.94-.09-2.2.46-2.75-.23s-.16-1.92-.16-2.93V97.31c0-.41-.3-1.12.29-1.19s1.41-.38 2 .44c2.64 3.65 5.32 7.28 8 10.91l3.85 5.24c.7.34 1 1.06 1.54 1.64a1 1 0 00.43.39 2.57 2.57 0 00.08-1.1v-16c-.02-.58-.14-1.19.31-1.64zM136 181.17c3.29.42 5.42 2.63 6.05 6.27a7.88 7.88 0 01-3.42 8.28 6.33 6.33 0 01-1.77.67c-.36.07-.64.15-.33.68 1.15 2 2.21 4.1 3.41 6.09a4.35 4.35 0 005.11 2.12c.22 3.08.3 2.53-1.51 2.81h-1.21l-2-.44a4.73 4.73 0 01-3.09-2.15 30.2 30.2 0 01-2.85-5.06c-.41-.79-.84-1.57-1.18-2.39s-.79-1.12-1.56-1a1.3 1.3 0 01-.89-.26c-.26 0-.53 0-.79-.05-.6-.1-.71.22-.71.8v9.21c0 .89-.25 1.08-1 1.06-2.31 0-2.31 0-2.31-2.52V187m33.19 13.48c-.87 2.18-1.76 4.34-2.6 6.52-.21.57-.44.83-1 .83-2.58 0-2.57 0-1.56-2.52q4.6-11.62 9.18-23.26c.28-.71.55-1.16 1.41-1.11a1.51 1.51 0 011.62 1.11c3.26 8.37 6.58 16.7 9.88 25 .07.19.12.39.22.72h-2.92c-.5 0-.57-.35-.72-.71-.89-2.23-1.8-4.46-2.7-6.69-3.64.07-7.23-.19-10.81.11zm5.38-84.98c-.86 2.18-1.75 4.34-2.57 6.53-.22.58-.46.82-1.07.82-2.55 0-2.55 0-1.55-2.52 3.06-7.75 6.14-15.5 9.16-23.27a1.49 1.49 0 011.63-1.1c.83 0 1.12.35 1.41 1.1q4.86 12.39 9.78 24.74c.33.85.29 1.07-.61 1-2.4 0-2.4 0-3.36-2.41l-2-4.94c-.89-.36-1.81 0-2.72-.08-2.52-.14-5 0-7.56 0-.17 0-.38-.04-.54.13zM216 160.57c-.87 2.17-1.76 4.33-2.61 6.51-.23.61-.51.92-1.16.86s-1.52 0-2.45 0c.7-1.75 1.36-3.41 2-5.08 2.73-6.93 5.49-13.86 8.18-20.82.36-.94.89-.91 1.61-1s1 .22 1.31.92q4.89 12.49 9.86 25c.35.88.15 1-.64 1-2.43 0-2.42 0-3.37-2.42-.65-1.66-1.33-3.29-2-4.94a6.84 6.84 0 00-2.43-.06c-2.68-.13-5.36-.06-8.05-.05a.59.59 0 00-.25.08zm-70.88-6.03v-12.45c0-.81.17-1 .92-1 4.35 0 8.69.05 13 0 .86 0 1 .3 1 1.16-.05 1.89 0 1.9-1.79 1.9h-8.85c-.86 0-1.05.28-1 1.15.06 2 .05 4 0 6 0 .83.17 1.11 1 1.1 2.59-.06 5.18 0 7.76 0 .6 0 .79.13.79.82 0 2.22 0 2.23-2 2.23h-6.66c-.59 0-.89.07-.88.86.05 2.6 0 5.2 0 7.8 0 .72.21.9.85.89h9.85c.69 0 1 .1 1 1-.06 2.07 0 2.07-2 2.07h-12c-.76 0-1-.17-1-1.05.04-4.24.01-8.36.01-12.48zm81.66-55.98a3.78 3.78 0 00-3.53 2.91 3.93 3.93 0 002.08 4.44 22.2 22.2 0 004.09 1.55 10 10 0 014.81 3.06 8 8 0 01-4.08 12.54 13.55 13.55 0 01-5.91 0c-.13-.09-.32 0-.44-.16-1.48-.49-1.87.29-3.06-.82-.32-.29.69.52.79.1.2-.86 2.48-1.17 2.71-2.14 1.48.92-.66-.4 1.94.24a6.17 6.17 0 002.49-.19c2-.49 3.48-1.48 3.72-3.88a3.94 3.94 0 00-1.6-3.91 9.38 9.38 0 00-3.85-1.63 16.61 16.61 0 01-4.14-2 7.57 7.57 0 01-2.76-8.13 6.77 6.77 0 016.27-5 14 14 0 012.67 0 11.59 11.59 0 015 1.82 1 1 0 01.46 1.31c-.24.67-.37 1.38-.56 2.14a11.17 11.17 0 00-4.9-2.19 12.78 12.78 0 00-2.2-.06zM82.6 167.78a12.74 12.74 0 01-3.29-1.93 1.21 1.21 0 01-.46-1.38c.22-.82.4-1.66.62-2.58 1.74 1.85 3.64 3.26 6.09 3.49a5.25 5.25 0 002.36-.21 5.86 5.86 0 002-.74 4.39 4.39 0 00.33-7 10.15 10.15 0 00-3.35-1.6c-2.06-.66-4.12-1.33-5.72-3.07-3.57-3.9-2.12-10.28 2.72-11.86.2-.06.4.1.6 0a12.06 12.06 0 017.31.62c2.39 1.08 2.4 1.06 1.52 4.34a11.51 11.51 0 00-4.87-2.18h-1.87c-2.77.14-4.38 2.07-3.93 4.68a3.81 3.81 0 001.85 2.54 13.41 13.41 0 003.6 1.48 13 13 0 014.24 2 7.46 7.46 0 012.83 7.16 7.19 7.19 0 01-4.47 6.22 10.65 10.65 0 01-6.06.57c-.33 0-.65-.1-1-.16s-.81.07-1.05-.39zM105.56 96h19.69c.85 0 1.06.24 1 1.13-.06 1.92 0 1.92-1.76 1.93-1.92 0-3.85.06-5.77 0-.94 0-1.22.21-1.21 1.28v21.12c0 1.64.16 1.39-1.34 1.41h-1.89c-.46-.46-.32-1.07-.32-1.63v-20.37c0-1.37 0-1.29-1.24-1.51a44 44 0 00-5.85-.2 7.19 7.19 0 01-1.39 0 3.3 3.3 0 01.08-3.16zM199 194.29v-12.36c0-.75.18-1 .88-1 2.5 0 2.5 0 2.5 2.65v20.16c0 .8.16 1 .92 1h9.86c.63 0 .84.16.83.89 0 2.16 0 2.16-1.94 2.16H199.9c-.71 0-.89-.22-.88-1-.02-4.12-.02-8.31-.02-12.5zM184.82 181h.3c1 .08 2.24-.46 2.86.23s.15 2 .16 3v22.39c0 1-.29 1.3-1.17 1.21-.72-.07-1.45 0-2.18 0a1.86 1.86 0 01-.36-1.41v-24a1.89 1.89 0 01.39-1.42zm-79.92-26.49v-12.45c0-.72.12-1 .85-1 2.47 0 2.47 0 2.47 2.71v23.07c0 .83-.17 1.11-1 1.1-2.34 0-2.34 0-2.34-2.6zm96.41-.01v12.45c0 .83-.22 1-.94 1-2.36 0-2.36 0-2.36-2.6v-23.06c0-.89.11-1.26 1.06-1.22 2.23.09 2.23 0 2.23 2.5z"/><path class="cls-5" d="M119.1 141.08v26.85h-1.25a2.19 2.19 0 01-.3-1.44v-24a2.19 2.19 0 01.3-1.44zM184.82 181v26.85h-1.25a2.16 2.16 0 01-.3-1.43v-24a2.19 2.19 0 01.3-1.44z"/><path class="cls-6" d="M105.54 99h7.44c1.31 0 1.31 0 1.31 1.33v22.47h-.23a2 2 0 01-.21-.35 5.83 5.83 0 01-.12-1.72v-19.34a4.34 4.34 0 00-.15-1.51 2.52 2.52 0 00-.21 1.41v19.49a5.82 5.82 0 01-.11 1.72 2.07 2.07 0 01-.22.35c-.79.14-1-.23-1-1.08V100.6c0-1.37 0-1.37-1.3-1.38h-5.26a.15.15 0 010-.16s.04-.06.06-.06z"/><path class="cls-7" d="M117.85 141.07v26.87c-.79.14-1-.24-1-1.08v-24.7c.01-.84.21-1.23 1-1.09z"/><path class="cls-8" d="M239.54 154.44v-12.23c0-.43-.28-1.14.52-1.11s.45.68.45 1.08v24.68c0 .4.26 1-.47 1.06s-.5-.62-.5-1q-.01-6.25 0-12.48z"/><path class="cls-6" d="M219.19 141.18c-.74 1.89-1.45 3.75-2.18 5.59l-7.8 19.77a2.71 2.71 0 01-.17.39c-.24.48-.39 1.33-1.06.94s.06-.86.22-1.24c3.25-8.29 6.53-16.56 9.77-24.84.26-.66.55-.79 1.22-.61zm-95.35 53.17v-6.24c0 2.25-.28-.14.5-.12s.47-.33.47.06v19.12c0 .37 0 .64-.47.66s-.53-.31-.53-.71v-7z"/><path class="cls-7" d="M183.57 181v26.87c-.8.14-1-.24-1-1.08v-24.7c.01-.88.2-1.27 1-1.09z"/><path class="cls-6" d="M143 154.46v-12.34c0-.41-.22-1.05.51-1s.47.67.47 1.07v25.12c0 .35 0 .64-.47.65s-.53-.29-.53-.69v-12.81z"/><path class="cls-7" d="M188 109.42V96.97c0-.38-.2-1 .46-1s.52.6.52 1v24.79c0 .41.22 1-.5 1s-.47-.66-.47-1.06c-.01-4.05-.01-8.16-.01-12.28z"/><path class="cls-6" d="M167.61 96.41c-.18.5-.37 1-.58 1.56q-4.18 10.62-8.38 21.24c-.41 1-.87 2-1.25 3.06-.17.44-.38.7-.8.54s-.17-.59-.06-.87q4.82-12.27 9.67-24.51a12.31 12.31 0 01.53-1.17.54.54 0 01.61-.26c.18 0 .29.15.26.41z"/><path class="cls-8" d="M133.79 109.47v12.34c0 .41.22 1-.51 1s-.46-.59-.46-1v-24.9c0-.39-.18-1 .48-1s.5.62.5 1c0 4.26-.01 8.41-.01 12.56z"/><path class="cls-6" d="M102.73 154.46v-12.24c0-.42-.29-1.14.51-1.12s.47.66.47 1.06v25.12c0 .37 0 .64-.47.65s-.53-.29-.53-.7v-12.77zm59.51 26.92c-.28.72-.56 1.41-.83 2.11l-7.72 19.56c-.54 1.36-1.09 2.71-1.63 4.07-.17.41-.37.88-.86.66s-.11-.68 0-1q4.22-10.74 8.46-21.46c.51-1.29 1-2.57 1.56-3.86.15-.38.39-.57.78-.48.22.02.26.23.24.4zm94.61-22.28a5.22 5.22 0 01-1-1.32c.34-.32.2-.74.21-1.12 0-3.39.16-6.8-.05-10.18-.16-2.69 0-5.39-.29-8.08a7.17 7.17 0 00-4.18-5.84c-.64-.32-.72-.59-.38-1.18.22-.4.38-.84.59-1.25a.5.5 0 01.76-.25c.28.16.12.43 0 .66-.19.54-.72 1-.57 1.57s.87.54 1.31.84a7.35 7.35 0 013.45 6.25c.3 6.63.13 13.27.15 19.9z"/><path class="cls-9" d="M206.73 96v19.92l-1.19-1.73a4.65 4.65 0 01-.33-1.89V97.52a2.36 2.36 0 01.31-1.54z"/><path class="cls-6" d="M139.57 111.81h1c2.49 5.79 4.95 11.6 7.49 17.37a8 8 0 004.62 4.74c.05.19 0 .3-.19.21-2.51-.47-4.15-2.23-5.22-4.55-1.79-3.86-3.41-7.81-5.1-11.72zm57.18 42.69v12.35c0 .37.25 1-.37 1s-.43-.61-.43-1v-24.8c0-.32-.1-.68.16-.92a.5.5 0 01.46 0c.3.16.2.51.2.78v11.91zm.99 40.01v12.78c0 .28-.09.5-.39.51s-.42-.17-.43-.46v-25.78c0-.32.07-.58.44-.57s.37.24.38.52v13z"/><path class="cls-10" d="M193.1 122.83a7.82 7.82 0 00.09-1.93c.05-5.21-.1-10.41.09-15.62a3 3 0 01.06-.42 44.46 44.46 0 013.45 4.57c3.21 4.3 6.37 8.65 9.55 13a1.4 1.4 0 01.1.25c-.48.37-.79.17-1.13-.29-2.05-2.81-4.13-5.61-6.2-8.42l-5.61-7.63a1.4 1.4 0 00-.12.93v14.41c-.02.37.2.87-.28 1.15z"/><path class="cls-11" d="M229 95.48a12.92 12.92 0 00-4.32.5 6.51 6.51 0 00-4.57 5.55 7.11 7.11 0 002.79 6.83c1.27 1 2.78 1.37 4.14 2.13a.43.43 0 01-.24.18 1.31 1.31 0 01-.59-.1c-.56-.21-1.15-.31-1.69-.57a9.06 9.06 0 01-3.29-1.73 7.14 7.14 0 01-2.55-6.66 6.25 6.25 0 014.18-5.52 18.18 18.18 0 011.77-.56 10.55 10.55 0 014.37-.05z"/><path class="cls-6" d="M205.48 96v18.2l-1.17-1.53c.3-.34.16-.76.16-1.14V97.07c0-.88.23-1.22 1.01-1.07z"/><path class="cls-10" d="M244.73 151.26v-1.32a53.5 53.5 0 013.52 4.65c3.19 4.31 6.35 8.64 9.52 13a3 3 0 01.13.3c-.75.3-1.08-.24-1.46-.76q-5.7-7.8-11.42-15.58a1.61 1.61 0 00-.29-.29zm-160.32 4.12c-2.48-.61-4.74-1.62-6.2-4.06-2.38-4-.3-9.33 4-10.27.22-.07.26.07.24.26a1.83 1.83 0 01-.72.55c-4.49 2.68-4.17 9 0 11.72.94.6 2 .93 2.93 1.54 0 .19-.03.33-.25.26zM223 96.18a6.48 6.48 0 00-4.14 5.88 7.1 7.1 0 003.81 7 7.31 7.31 0 001.92.85c.05.2 0 .3-.2.22a8.23 8.23 0 01-5.6-3.91c-2.13-3.78-.7-9 4-10.21.21-.13.26-.01.21.17zm-92.2 100.63h1a42.9 42.9 0 012.54 4.73 14.56 14.56 0 003.33 4.87c.55.46 1.25.64 1.73 1.21 0 .19 0 .33-.24.25a6.23 6.23 0 01-4.38-3.22 70.94 70.94 0 01-3.98-7.84zm44.02-39.9h1a80.27 80.27 0 004.37 8.2 6.47 6.47 0 003.18 2.63c.05.2 0 .3-.2.22-2.36-.51-3.83-2.25-5-4.38s-2.17-4.45-3.35-6.67z"/><path class="cls-7" d="M88 165.39a3.9 3.9 0 01-2.48 0c2.56-.22 3.9-1.44 4.3-4.14a4.11 4.11 0 00-1.43-3.88 8.25 8.25 0 00-3-1.56c0-.22.08-.31.24-.37a10 10 0 013.37 1.28c1.84 1.09 2.27 2.91 2 5a3.8 3.8 0 01-2.72 3.47c-.1 0-.28-.02-.28.2z"/><path class="cls-10" d="M164.52 115.5c.13-.31.39-.23.6-.23h9.65c.22 0 .48-.09.6.23-1.21 0-1.19 0-.7 1.18.71 1.74 1.42 3.49 2.08 5.26.09.23.52.66-.05.88-.41.15-.67-.11-.83-.53-.79-2-1.61-4-2.36-6.07a.93.93 0 00-1-.74c-2.68.02-5.34.02-7.99.02zM216 160.57c.11-.26.33-.2.52-.2h9.75c.18 0 .41-.08.49.22-1.13 0-1.12 0-.69 1.1.82 2 1.61 4.09 2.42 6.14-.76.31-1.06-.08-1.29-.69-.69-1.83-1.45-3.63-2.11-5.48a1.37 1.37 0 00-1.52-1.1c-2.49.06-5.02.01-7.57.01zm-56.86 39.91c.11-.32.38-.22.59-.22h9.63c.19 0 .41 0 .54.18-1-.1-1.07.24-.66 1.18.76 1.72 1.4 3.49 2.06 5.26.1.28.54.65.09.9s-.77-.11-1-.61c-.45-1.19-.92-2.38-1.39-3.57-.29-.76-.62-1.51-.89-2.28a1.07 1.07 0 00-1.18-.86c-2.57.04-5.18.02-7.79.02z"/><path d="M226.21 110.49h.58a8.54 8.54 0 012.84 1.15 5 5 0 011.11 7.17 4.49 4.49 0 01-2.28 1.42c-.27-.14-.68.46-.85-.19a4.7 4.7 0 002-7.19 7 7 0 00-3.6-2.16c-.01-.19-.01-.29.2-.2zM82.22 168.17a9.46 9.46 0 01-5-2.33 1.35 1.35 0 01-.44-1.61c.22-.71.35-1.46.54-2.27.45.32.95.65.7 1.19-1 2.13.34 3 1.72 3.83a7.12 7.12 0 002.5 1 .13.13 0 01.06.13s-.06.06-.08.06z" fill="#ddd4bc"/><path class="cls-13" d="M105.54 99v.23c-.73-.12-1.5.27-2.19-.23a1.55 1.55 0 00.71-1.6 2 2 0 01.26-1.41h1.25c-.02 1.01-.02 2.01-.03 3.01z"/><path d="M104.31 96v2c.09.89-.26 1.15-1 1v-1.94c-.07-.86.22-1.22 1-1.06z" fill="#ddd5bd"/><path d="M226.78 98.56a3 3 0 012.23 0h-.09c-.07 0-.21.14 0 .16a7.87 7.87 0 012.29 1c.28.16.65.26.58.9-1.67-.84-3.17-1.96-5.01-2.06zM86.54 143.62a2.26 2.26 0 011.87 0h-.09c-.07 0-.21.13 0 .17a10.5 10.5 0 012.36 1c.29.16.6.3.49.9a15.47 15.47 0 00-4.63-2.07z" fill="#dfd6bf"/><path d="M227.61 120.05c.26.38.53-.1.8 0 .09.16.32 0 .4.23a4 4 0 01-2.63 0z" fill="#e9daca"/><path d="M82.22 168.17a1.27 1.27 0 000-.2l.39-.19c.34.13.73.08 1 .36a1 1 0 01-1.39.03z" fill="#ebe2d4"/><path d="M82.41 141.27l-.2-.22a2.18 2.18 0 012.24-.18.37.37 0 01-.45.13c-.56-.15-1 .52-1.59.27z" fill="#e7e1d0"/><path d="M226.21 110.49l-.19.21c-.52-.27-1.15-.2-1.62-.62l.2-.22z" fill="#e5dfcd"/><path d="M223 96.18l-.2-.22a3.27 3.27 0 011.8-.43c-.41.54-1.1.32-1.6.65z" fill="#e4decc"/><path d="M85.62 155.58l-.2.22c-.31-.23-.74-.09-1-.42l.19-.2c.39-.01.83-.18 1.01.4z" fill="#e6dfcd"/><path class="cls-22" d="M183.18 168l.2-.22.8.29c-.35.08-.69.21-1-.07z"/><path d="M139.17 207.85l.19-.21c.38-.19.69 0 1 .2l-.2.22c-.33-.06-.7.13-.99-.21z" fill="#e8e2d1"/><path class="cls-22" d="M152.51 134.14l.19-.21.81.28c-.34.11-.69.26-1-.07z"/><path class="cls-13" d="M113.07 122.85v-.21a.65.65 0 011 0v.21z"/><path class="cls-11" d="M140.37 207.84a1.87 1.87 0 01-1-.2 6.43 6.43 0 01-3.41-2.79 57.75 57.75 0 01-4.14-8.06c.71-.17 1.13.08 1.48.83.9 1.91 1.9 3.78 2.86 5.66a9.17 9.17 0 004.22 4.38z"/><path class="cls-7" d="M144.2 108.59a37.62 37.62 0 01-5.62.16c-.37 0-.4-.28-.4-.59v-8.54c0-.3 0-.61.39-.6a34 34 0 015.43.17c2.78 1.26 3.77 4.92 2.14 7.78a5.27 5.27 0 01-1.94 1.62z"/><path d="M144.2 108.59a1 1 0 01-.18-.08c-.13-.1 0-.13 0-.18a5.3 5.3 0 001.69-7.57 4 4 0 00-1.83-1.39v-.1a.24.24 0 01.06-.08c2.34.24 3.73 1.86 3.76 4.38.11 3.02-1.07 4.68-3.5 5.02z" fill="#fefcfb"/><path class="cls-25" d="M122.47 164.69v-9.31a18.93 18.93 0 014.93 0c2 .24 3.29 2.55 3.08 5.28-.19 2.48-1.69 4.18-3.77 4.16a24 24 0 01-4.24-.13zm3.95-12.59c-1.15 0-2.3 0-3.45.05-.45 0-.56-.17-.55-.62v-7.2a18.59 18.59 0 014.41 0 1.8 1.8 0 01.91.38c1.77 1.35 2 4.88.5 6.53a3.2 3.2 0 01-1.82.86z"/><path class="cls-10" d="M122.47 164.69c1.16 0 2.32-.06 3.48 0 3 .21 4.75-2.64 4.17-5.8-.42-2.32-1.81-3.51-4-3.53h-3.67c.06-.06.12-.19.19-.19a35.37 35.37 0 016 .16 5.29 5.29 0 012.56 6.53 4.78 4.78 0 01-2.38 2.83 22.32 22.32 0 01-4.9.18c-.47.04-1.01.27-1.45-.18z"/><path class="cls-26" d="M128.84 164.71c-.23-.07-.4-.16 0-.31 2.25-.94 2.72-3.81 2.25-5.83a3.94 3.94 0 00-2.4-2.94c-.39-.16-.21-.2 0-.28 2.3.24 3.67 1.92 3.72 4.54s-1.28 4.49-3.57 4.82z"/><path class="cls-13" d="M128.07 144.28c2.11.27 3.26 1.83 3.12 4.24a3.49 3.49 0 01-3.75 3.59c0-.51.4-.52.66-.66 2.21-1.13 2.09-5.08.43-6.28-.28-.19-.8-.3-.64-.9h.08a.29.29 0 01.1.01z"/><path class="cls-7" d="M128.07 144.28c-.14.13-.11.22 0 .3 1.64.87 2 2.43 1.88 4.22a3.42 3.42 0 01-2.42 3.17s-.09.09-.13.14h-1c2.28-1.17 3-2.74 2.43-5.22a3 3 0 00-2.92-2.55h-3.46c.18-.42.52-.22.78-.21a25.91 25.91 0 014.84.15z"/><path class="cls-5" d="M129.4 193.54c-.15-3.11-.15-6.23 0-9.34a19.27 19.27 0 014.36 0c2 .2 3.39 2.32 3.28 4.82a5.4 5.4 0 01-1.56 3.86 2.48 2.48 0 01-1.62.76 28.86 28.86 0 01-4.46-.1z"/><path class="cls-10" d="M129.4 193.54h3.37c2.95.11 4.2-2.78 4-5.14-.3-2.9-1.82-4.32-4.45-4.19-1 .05-.92 0-1.88 0 .52-.53 2.51-.11.4-.19 1.47.06 3-.23 4.42.18a5.51 5.51 0 012.09 7.53 4.66 4.66 0 01-2.07 1.85 18.75 18.75 0 01-5.88-.04z"/><path class="cls-13" d="M135.24 193.57c-.21-.42.19-.37.32-.44 1.7-.86 2.17-2.53 2.17-4.29s-.6-3.56-2.41-4.34c-.14-.06-.13-.07-.1-.31 2.29.27 3.63 1.95 3.67 4.63s-1.3 4.45-3.65 4.75z"/><path class="cls-9" d="M160.48 197l2.83-7.35c.57-.23.69.29.84.64.8 1.95 1.58 3.9 2.31 5.88.35.92.18 1.15-.74 1.16h-4.57c-.23-.03-.64.22-.67-.33z"/><path class="cls-26" d="M164.06 187.87a3.07 3.07 0 01.53-1.28c1.35 3.6 2.86 7 4.06 10.63-.88.34-1.39 0-1.74-.94-.84-2.27-1.76-4.5-2.64-6.75a2.23 2.23 0 01-.21-1.66z"/><path class="cls-6" d="M164.06 187.87a30.71 30.71 0 001.65 4.6c.44 1.28 1 2.49 1.47 3.77.27.85.72 1.12 1.47 1 0 .37-.26.21-.4.21h-7.27c-.18 0-.77.32-.5-.42.6.45 1.27.19 1.91.21 1.15.05 2.31 0 3.46 0 .46 0 .71-.12.48-.7-.85-2.13-1.69-4.28-2.54-6.42-.09-.22-.18-.47-.48-.46z"/><path class="cls-9" d="M165.84 112.23c.89-2.65 1.92-5.24 3-7.79.43 0 .5.42.63.72.8 1.94 1.58 3.88 2.3 5.85.41 1.12.27 1.35-.83 1.32a41.8 41.8 0 01-5.1-.1z"/><path class="cls-26" d="M169.44 102.9l.51-1.46 4.11 10.79c-1.26.22-1.29.21-1.73-.92-.89-2.33-1.83-4.64-2.73-7a1.84 1.84 0 01-.16-1.41z"/><path class="cls-6" d="M169.44 102.9a56 56 0 002 5.39c.34 1 .8 1.9 1.11 2.89s.71 1.22 1.52 1c.07.13 0 .2-.1.2h-8.08a.44.44 0 010-.16h5.27c.51 0 .88 0 .57-.77-1-2.33-1.88-4.68-2.81-7z"/><path class="cls-9" d="M217.27 157.32l3-7.78c.5 0 .62.52.76.89.77 2 1.55 3.91 2.29 5.88.37 1 .25 1.14-.71 1.11a45.33 45.33 0 01-5.34-.1z"/><path class="cls-26" d="M220.83 148.22l.56-1.69 4.05 10.54c-.51.56-1.08.51-1.43-.16a21.93 21.93 0 01-.85-2.07q-1-2.7-2.08-5.38a2.22 2.22 0 01-.25-1.24z"/><path class="cls-6" d="M220.83 148.22c1.11 2.81 2.25 5.61 3.34 8.44.3.79.67.89 1.27.41.23.26.23.47-.15.47h-7.94s0-.11-.08-.17h6.13c-1.07-2.67-1.91-5.31-3.13-7.78z"/><path class="cls-26" d="M228.81 120.27l-.4-.23c3.24-.89 3.85-4.84 2.27-7.1a6.66 6.66 0 00-3-2l-.89-.43h.21a7 7 0 014.68 2.3 4.4 4.4 0 01.74 4.43 4.19 4.19 0 01-3.61 3.03z"/><path class="cls-9" d="M85.62 155.58c-.28-.32-.71-.18-1-.4a8.81 8.81 0 01-5.25-3.63 7 7 0 013.06-10.28c.53-.08 1-.7 1.59-.23a6.81 6.81 0 00-4.36 4.65A7.4 7.4 0 0084 154.5c1.13.5 2.32.82 3.47 1.26a18.13 18.13 0 012 .88 4.63 4.63 0 01-1.47 8.75c-.09-.09-.51-.09 0-.29a4.12 4.12 0 002.43-2.21c.76-1.85.52-4.78-1.53-5.93a10.11 10.11 0 00-3.28-1.38z"/><path d="M114.07 122.64h-1v-22.52c0-.36-.14-.85.45-.89s.55.47.55.89v22.52z" fill="#fefefe"/><path d="M140.65 99.23a4.87 4.87 0 013.25.67 5.32 5.32 0 011.52 5.69 3.57 3.57 0 01-3.78 3h-2.49c-.62 0-.79-.24-.78-.88v-7.37c0-.84.19-1.21 1-1.09a11.09 11.09 0 001.28-.02z" fill="#fffffe"/><path class="cls-4" d="M174.82 156.91c-1.39-.09-1.39-.09-1.39 1.38v8.67c0 .71-.1 1-.84 1-2.45 0-2.45 0-2.45-2.61v-23.18c0-.84.18-1.11 1-1.08 3 .13 6-.16 8.94.2a6.92 6.92 0 016.1 5.86c.65 3.88-.68 7.26-3.47 8.75a7.6 7.6 0 01-1 .43c-1.23.43-1.23.42-.53 1.7.92 1.67 1.81 3.35 2.77 5a4.39 4.39 0 004.89 2.45c.52-.09.52.13.54.54.11 2 0 2.12-1.89 2.21-3 .15-5.17-1.32-6.69-4a99.04 99.04 0 01-3.3-6.4c-.39-.83-.85-1.11-1.63-.9-.38.32-.71.17-1.05-.02z"/><path class="cls-6" d="M168.86 154.56v12.89c0 .3-.14.48-.43.46s-.36-.16-.38-.41 0-.28 0-.43v-25.13c0-.33-.12-.81.39-.82s.43.53.43.88c0 4.19-.01 8.38-.01 12.56z"/><path class="cls-25" d="M173.46 153.63v-9.3a20 20 0 014.83 0 3 3 0 012.06 1.7 6.12 6.12 0 01-.26 6.39 2.68 2.68 0 01-1.8 1.22 21.09 21.09 0 01-4.83-.01z"/><path class="cls-10" d="M173.46 153.63h3.38a3.61 3.61 0 003.85-3.25c.72-3.34-1.09-6.4-4.15-6.08-1 .1-2 0-3.08 0 .1-.37.38-.23.58-.22 1.73.09 3.47-.21 5.2.18 2.62 1.45 3.49 4 2.46 7a4 4 0 01-2.68 2.5l-5.38.05c-.06.02-.12-.11-.18-.18z"/><path class="cls-11" d="M179 153.78c0-.34.3-.34.5-.44a4.13 4.13 0 002.28-3.84c.12-2-.36-3.7-2.12-4.73-.17-.1-.58 0-.44-.48a4.05 4.05 0 013.75 4.18c.12 3-1 4.72-3.38 5.19z"/><path class="cls-1" d="M230.4 116.18l-14.56 9.92m-78.39 53.42l-14.98 10.2"/></g></g></svg>