<svg xmlns="http://www.w3.org/2000/svg" viewBox="0 0 754.08 379.34"><defs><style>.cls-2{fill:#9d4900}.cls-3{fill:none;stroke:#dbd2b9;stroke-miterlimit:10;stroke-width:2px}</style></defs><g id="Layer_2" data-name="Layer 2"><g id="Cabin"><path fill="#fff" d="M447.19 306.9H309.54L.7.71h752.68L447.19 306.9z"/><path class="cls-2" d="M181.5 57.89h-8.05v-2.53h19.12v2.53h-8V78h-3zm32.37 25.7l-7-14.93h-3.28V78h-3V55.36h7.49c5.17 0 7.4 3 7.4 6.65a6.07 6.07 0 01-5.48 6.46l6.7 14.14c1.36 2.3 2.57 2.61 4.27 2.61a5.33 5.33 0 001.29-.15v2.49a8.46 8.46 0 01-2.08.26c-2.57 0-4.68-1.29-6.31-4.23zm-5.79-17.46c3.4 0 4.42-2 4.42-4.12s-1-4.12-4.42-4.12h-4.46v8.24zM232 55.36h2L243.72 78h-3.1l-2.72-6.34h-10L225.21 78h-3zm4.87 13.87l-4-9.33-4 9.33zm14.76-13.87h1.74l13.49 16.89V55.36h2.76V78h-1.74l-13.49-16.86V78h-2.76zm26.92 20.41l.68-2.8a9.24 9.24 0 006.87 3.1c2.69 0 4.76-1.51 4.76-4 0-2.3-1.13-3.59-5.36-4.72s-6.31-3.44-6.31-6.62 2.65-5.89 7.29-5.89a10.13 10.13 0 016.16 2l-.64 2.49a10.16 10.16 0 00-5.48-2c-2.83 0-4.46 1.32-4.46 3.43 0 1.63 1 3 4.58 3.94 4.87 1.28 7.1 3.4 7.1 7.14 0 4.42-3.7 6.68-7.6 6.68a10.61 10.61 0 01-7.59-2.75zm34.45 0l.68-2.8a9.26 9.26 0 006.88 3.1c2.68 0 4.76-1.51 4.76-4 0-2.3-1.13-3.59-5.37-4.72s-6.31-3.44-6.31-6.62 2.65-5.89 7.3-5.89a10.16 10.16 0 016.16 2l-.69 2.45a10.13 10.13 0 00-5.47-2c-2.84 0-4.46 1.32-4.46 3.43 0 1.63 1 3 4.57 3.94 4.87 1.28 7.1 3.4 7.1 7.14 0 4.42-3.7 6.68-7.59 6.68a10.66 10.66 0 01-7.56-2.71zm24.18-20.41h3V78h-3zm13.12 0h7.48c4.61 0 6.57 2.68 6.57 5.93a6 6 0 01-2.35 4.46 6.17 6.17 0 013.59 5.63c0 3.67-2.23 6.65-7.41 6.65h-7.88zm7.48 9.37c2.83 0 3.7-1.7 3.7-3.44s-.87-3.4-3.7-3.4h-4.46v6.84zm.37 10.77c3.41 0 4.43-2 4.43-4.12s-1-4.12-4.43-4.12h-4.83v8.24zm16.19-20.14h13.71v2.53h-10.69v6.92h8.8v2.53h-8.8v8.16h10.69V78h-13.71zm32.39 18.7l-3-5.4h-3.29V78h-3V55.36h7.48c5.17 0 7.4 3 7.4 6.65 0 3.4-1.92 6-5.48 6.46l2.73 4.61c1.36 2.31 2.56 3 4.26 3a5.33 5.33 0 001.29-.15V78a8 8 0 01-2.08.27c-2.57.03-4.68-1.27-6.31-4.21zm-1.81-7.93c3.4 0 4.42-2 4.42-4.12s-1-4.12-4.42-4.12h-4.46v8.24zm18.26-10.77h3V78h-3zm20.67 0h2L455.57 78h-3.1l-2.72-6.34h-10l-2.7 6.34h-2.94zm4.88 13.87l-4-9.33-4 9.33zm14.75-13.87h1.74l13.48 16.89V55.36h2.76V78h-1.74l-13.48-16.86V78h-2.76zm48.87 18.7l-3-5.4h-3.29V78h-3V55.36h7.48c5.18 0 7.4 3 7.4 6.65 0 3.4-1.92 6-5.47 6.46l2.72 4.61c1.36 2.31 2.57 3 4.27 3a5.31 5.31 0 001.28-.15V78a8 8 0 01-2.08.27c-2.57.03-4.66-1.27-6.31-4.21zm-1.81-7.93c3.4 0 4.42-2 4.42-4.12s-1-4.12-4.42-4.12h-4.46v8.24zm27.18-10.77h2L549.43 78h-3.09l-2.72-6.34h-10l-2.7 6.34H528zm4.88 13.87l-4-9.33-4 9.33zm14.75-13.87h3V78h-3zm13.11 0h3V75.5h10.69V78h-13.69z"/><path class="cls-2" d="M478.67 58.78l-.15-5.35a6.11 6.11 0 00-3.39-5.14 5.39 5.39 0 00-1.2-.49l1-2.14a7.85 7.85 0 011.95.77 9 9 0 014.57 7.51v6.17"/><circle class="cls-3" cx="378.34" cy="309.49" r="68.85"/><path class="cls-3" d="M401.21 330.7a10.86 10.86 0 018.55 4.15l10.08-8.23-45.93-56.31-10.07 8.21a10.93 10.93 0 11-16.94 13.82l-10.07 8.21 45.93 56.32 10.08-8.22a10.92 10.92 0 018.37-17.95z"/><circle class="cls-3" cx="357.6" cy="308.98" r="3.61"/><circle class="cls-3" cx="368.07" cy="321.14" r="3.61"/><circle class="cls-3" cx="378.34" cy="333.46" r="3.61"/><path class="cls-3" transform="rotate(50.7 386.36 306.152)" d="M366.91 302.82h38.91v6.69h-38.91z"/><path class="cls-3" d="M332.17 258.41l-95.26-136.96m182.21 132.57l99.07-131.55M378.34 240.64V121.97M342 306.9h-32.46L.7.71M403.75 306.9h43.44L753.38.71"/></g></g></svg>