<svg xmlns="http://www.w3.org/2000/svg" viewBox="0 0 959.47 530.69"><g data-name="Layer 2"><g data-name="Layer 1"><path d="M0 521.69c3.19-2.34 6.94-1.94 10.58-2.21q40.85-3 81.38-8.83c1.48-.22 4.11.32 4-1.91-.16-2.63-2.85-1.76-4.46-1.58q-37.45 4.11-74.91 8.4c-3.8.43-7.61.87-11.42 1.24-2.44.24-4.27-.29-4.35-3.34-.07-2.73 1.09-3.83 3.8-4 12.81-1 25.21-4.36 37.81-6.49 9.28-1.57 18.92-1.09 28.4-1.38 9-.28 17.93-1.58 27-1.13 4.1.21 6.25-2.07 6.83-5.8a13 13 0 017.58-10.4c3.65-1.8 4.73-4.83 4.72-9-.07-18.51-1.71-36.92-3.09-55.35-.19-2.6-.68-4.7-3.76-4.83-3.7-.16-4.66-2.63-5.06-5.67-.34-2.55-.69-5.35-4.11-5.18s-3.68 3-3.71 5.54c0 3.58-1.8 5.06-5.28 5.06-9.66 0-19.33.52-29-.76-2.19-.29-4.21-.86-4.05-3.41.47-7.2-2.71-13.9-2.39-21.18.22-4.75 2.68-8.84 2.47-13.64-.12-2.64-2.65-6-.17-7.78 1.81-1.3 5.15-.64 7.8-.56 2.93.08 4-1.05 4.28-4.06.43-5.68 2.79-11.24.28-17.06-.6-1.38-.67-2.57-2.43-2.19-2.16.46-3.8.05-3.79-2.47 0-2.9 2.07-2.88 4.44-3.32 8.34-1.55 16.27 2.07 24.58 1.38 4.1-.34 5.7-1.56 6.66-5.46 4.54-18.43 9.44-36.77 14.09-55.18a55.59 55.59 0 001.73-16.26 2.58 2.58 0 011.92-2.62c2.49-.93 2.6-3.27 3.25-5.27s-.15-3.17-2.42-3a46.47 46.47 0 01-10.91-1c-2.23-.41-4.29-1-3.82-4.09.39-2.52.33-5.13 3.91-5.27 3.82-.15 7.56-1.08 11.44-.85 9.14.52 17.88-3 27.12-2.58 5.1.26 10.28-.45 15.43.29 3.6.52 5-1 4.07-4.58-6.79-27-4.59-53.51 5-79.51.82-2.2 1.14-4.22-.24-6.62-3.19-5.58-1.67-10.56 3.05-14.92 3.92-3.61 8.5-7 7.25-13.76-.66-3.57 3.14-3.76 5.28-3.27 4.16.95 6.56-.74 9.46-3.41 5.37-4.94 12.34-6.87 19.37-8.33a56.3 56.3 0 016.35-1.3c6.65-.56 11.68-2.35 11.84-10.58.07-3.94 2.72-7.49 4.79-10.89 3.58-5.89 4.84-12.33 5.18-19.06.46-9.18 3.54-13.14 12.26-16 2.59-.85 5.55-.92 8.12-3.36-5.31-2.36-9.14 1.49-13.71 2.29-.58-2.38.9-3.48 2.28-4.54a15.89 15.89 0 016.43-2.65 13.58 13.58 0 017.4 0c2.78.93.44 4.61 3.16 5.93 1.83-1.82 1.12-4.06.65-6-2.32-9.55-1.48-19.6-4.78-29-1-2.74.63-4.68 3.08-5.43 11-3.34 22-5.27 33.09-.51 4.53 1.95 9.25 2.56 14.1 2.86 2.11.13 4.5.17 5.67 2.46.78 1.54-.37 2.53-1.47 3.3-2.23 1.59-4.53 3.09-7.21.83s-5.65-1.61-8.58-1c-3.53.74-5.92 2-2.23 5.74 1.89 1.9 1 3.93 0 6-3.1 6-2.8 7.09 3 10.83 1.41.92 1 2.09.4 3a21.71 21.71 0 00-3 13.14c.5 7.53-2.05 14.77-3.45 22.07-.78 4.08.45 7.54 1.11 11.25.2 1.12.69 2.59-.48 3.21s-2.08-.71-2.72-1.62c-4.9-7-9.48-14.09-9.18-23.24.13-4.09-.61-8.17-3.54-11.8 1.39 12.31 3.35 24 9.49 34.67 3.16 5.49 3 11.86 2.19 18.08a25.18 25.18 0 00-.23 4c0 .86.58 1.69 1.59 1.46a2.37 2.37 0 001.32-1.25 8.66 8.66 0 00.28-2c.36-2-.62-5 2.62-5 3-.06 4.94 1.76 4.76 5.12-.14 2.63 1.28 3.55 3.72 3.45a23.21 23.21 0 014.49.09c2.32.38 4.21.57 1.91 3.95-3.69 5.42-.27 13.57 6.47 15-2.5-2.54-4.27-4.81-4.7-7.91-.14-1.06-2.27-1.93-1.08-3.34s2.58.9 4.06.56c.35-1.61-2.84-2.83-.19-4.69 1.58-1.1-.11-1.81-1.05-2.43-2-1.28-3.26-3.22-2.7-5.47.66-2.58 3.22-3.28 5.54-3.54 2.82-.31 5.23-.2 6.91-3.54 1.36-2.71 3.14.6 5.11 1.38a41.34 41.34 0 011.07-14.53A25.25 25.25 0 01342.92 71c10.15-9.4 22.08-14 35.94-11.34 4.73.9 8.52 4.41 11 8.8.67 1.21 1.76 2.9.26 4.1s-2.78-.28-3.93-1.16c-.91-.71-1.64-1.66-2.55-2.38a3.41 3.41 0 00-5 .22c8.69 3.38 13.11 8.65 5.22 16.52.67.28 1.23.55 1.81.75 5.6 1.91 5.83 2.56 2.5 7.46-.46.67-1.29 1.18-.74 2.12a2.06 2.06 0 002.16.87 56.25 56.25 0 0122.31 2.92c-1.78-1.79-4.11-2.26-4.9-4.59-2.2-6.57 0-9.82 6.85-9.87h24.5c2.47 0 5 .35 7-1.73 1.14-1.18 2.35-.83 3.4.42a10.88 10.88 0 001.93 1.54c1.49 1.09 4.84 0 4.64 2.71-.17 2.28-3 1.33-4.68 1.71-2.43.56-2.41 2.39-2.43 4.49 2.17.32 4.18-3 6.22-.71 1.55 1.72.71 4.17.8 6.29.54 12.84-.37 25.64-1.09 38.44-.19 3.52.18 6.63 3.28 8.88.64.46 1.43 1.3 1.43 2 0 8.56 8.12 8.45 12.76 12 1.63 1.23 3.85.95 4.06-1.68.6-7.46 2.48-14.81 1.9-22.35a14.62 14.62 0 00-.63-2.92c-.24-.81-.68-1.7-1.68-1.35a2.07 2.07 0 00-.89 1.57c-.13 2-.06 4-.15 6-.06 1.15-.07 2.53-1.63 2.67s-3-.61-2.82-2.13c.63-5.5-1.66-11.72 3.67-16.15a1.48 1.48 0 00.63-1.73 1.62 1.62 0 00-2-1.07c-1.67.43-3.26.63-4.76-.48s-3.23-2.2-3.15-4.22c.09-2.45 2.31-1.91 3.85-2 2.17-.2 2.78-1.57 2.79-3.42a59.63 59.63 0 00-.17-6c-.2-2.08-.11-3.73 2.63-3.61 2.33.09 4.84-.25 5 3.29a29.68 29.68 0 01-.95 7.4c-1.05 5.06-.14 6.28 5.1 6.44 4 .12 8.12.62 12-.15 5.64-1.14 10.88.67 16.31 1a5.48 5.48 0 013.83 2.09c3 3.34 7.3 3.19 11.12 3.3 3 .09 2.77-3.21 2.89-5.46.09-1.86-.26-3.94 2.33-4.18s3.61 1.5 3.57 3.77c-.13 6.38 3.32 8.42 9.24 9.66a243.94 243.94 0 0134 10.1 17.15 17.15 0 0010.49.91c15.44-3.58 31.17-1.32 46.77-1.79 13.1-.39 23.53 6.5 34.75 11.27 6.28 2.67 12.36 5.83 18.4 9 1.86 1 5.52 1.8 4.35 4.42-1.28 2.84-4.18.45-6.09-.43-10.85-5-22.23-8.87-32.45-15.18-3.55-2.18-4.8-1.26-4.66 2.65s-1 8.18 4.85 9.86c3.23.93 3.58 4.94 4 8.09.51 3.45-.65 7.1 3.06 10 1.31 1-1.4 4.68 0 7.2a18.14 18.14 0 01-7.87 1.87c-5.89.2-10.92-2.52-16.09-4.8-1-.44-2-1.35-3.65-.55 3.54 3 7.76 4 11.66 5.52s6.65 3.21 5.38 8.39 1.26 9.95 4.42 14.08c1.41 1.86 3.72.91 5.64 1.19 2.46.37 5.87-1.35 7 2a6.39 6.39 0 01-1.82 6.46c-2.67 2.47-5.23.57-7.51-.76 2.75 30.17 2.33 60.43 2.88 90.66.23 12.66.48 25.32.94 38 .2 5.21-.75 10.29-.94 15.45-.11 3.24 1.18 4.38 4.42 4.36 23-.11 46-.08 69-.14 1.89 0 4 .61 5.27-1.79 1.45-2.82-1.43-3-2.26-4.37a7.8 7.8 0 011-9.67 7.13 7.13 0 002.17-4.8c1.36-24.64 1-49.31 1-74 0-3.26-1.32-4.88-4.39-5.57-4.38-1-8.69-2.33-13.1-3.23-4.21-.85-6.41-3.19-6.6-7.47-.33-7.44-2.44-14.77-1.05-22.31.48-2.61-.84-4.48-3.42-5.37-2.83-1-5.64-2.05-8.47-3-3.86-1.31-5.63-3.72-4.88-8a78.33 78.33 0 00.39-21.41c-.12-1.19-.39-2.54 1.17-2.82a2 2 0 012.27 2.15c.14 6.52 4.58 6.55 9.35 6.68 9.32.25 18.64.77 27.95 1.19a16.17 16.17 0 017.61 2.15c9.77 5.74 19.62 11.33 29.36 17.12 5.43 3.22 10.1 7.91 17.07 7.91 1 0 2.14 1 2.92 1.8 3.19 3.37 6.17 6.08 11.53 6.62 4 .4 6.32 6 10.71 7.54.6.22.53 1.2.06 1.75a2.43 2.43 0 01-2.3.58c-1.77-.15-3-2.14-5.54-1.31 2 2.84 5 3.52 7.69 4.37 5.9 1.86 8.17 5.34 8.25 11.76.16 12.3-.77 24.64.66 36.92.15 1.24-.23 2.64.94 3.61.45-.21 1-.38 1-.48-1.83-14.05 1.23-28.21-1-42.25-.23-1.45-.34-3.46 1.54-3.73a10.24 10.24 0 017.16 1.49c1.68 1.12.94 2.6-.2 3.81a3.36 3.36 0 00-.68 2.78c1.8 28.78 1.35 57.61 1.54 86.42.07 11.33.6 22.65 1 34 .16 4.48 4.58 6.57 8.64 4.19 5 .09 6.43-2.31 5.26-7a16.58 16.58 0 01-.17-5.45c1.55-16.71.06-33.44.46-43 .41 11.31-2.53 29.6-2.52 48 0 2.8-.12 5.73-3 7.45-4-2.41-2.73-6.48-2.63-9.82.78-24.15.39-48.3 0-72.45-.17-11.48 0-23 0-35.48-1.66 2-1.06 3.86-3.17 4.52-.35-3.56 1-7.79-3.39-9.8a1.86 1.86 0 01-.3-1.75c.67-1 1.84-.75 2.73-.37 4.43 1.91 8.84 3.86 13.21 5.91 1.33.62 2.13 1.49 4.06 1.67 4.19.39 5.47 4.2 4.89 8.46.43-2.9-.28-5.91 4.33-6.22 2.82-.19 5 .32 4.19 3.07-3.67 12.85-1.19 25.77-.89 38.67a75.44 75.44 0 01.12 8.5c-.32 3.4 1.89 5.23 3.51 7.71 2.11 3.22-4.18 2.69-3.62 6.43a63.06 63.06 0 011 12.88c-.46 8.61-4.31 16.84-2.77 25.64.17 1 0 2 .14 3 .16 1.72 1.13 2.9 2.85 2.89 2.29 0 1.75-1.82 1.89-3.29.9-9.65.33-19.29-.08-28.94-.11-2.57-.44-5.33 2.16-8.54 3.12 15.78.77 31.23 4.12 46.08 0-8.8.64-17.66-.12-26.39-2.09-24.2-5.65-48.3-5.22-72.67.06-3.39-2.28-5.9-2.19-9.08 0-1.37-.73-3.37 1.26-3.82 1.63-.37 1.72 1.66 2.58 2.55 3 3.15 3.58 7 3.53 11.07-.16 12.5 1.93 24.86 2.51 37.31 0-12.14 0-24.28.05-36.42 0-1.6-1-4.29 1.57-4.53 2.35-.21 3.15 2.33 3.51 4.24.94 5 .45 10 0 14.94-.51 5.46-1 10.93-1.49 16.4-.08.94-.25 2.29.94 2.57 1.73.4 1.48-1.37 2-2.29a3.43 3.43 0 00.28-1c1.79-8 1.79-8 9.67-6.19a97.85 97.85 0 0019.3 2.29c6.3.19 8.38 2.24 8.6 8.53s.14 12.66.24 19c.09 5.69-.14 5.85-5.8 3.58 3.58 3.56 3.11 8 2.71 12.22-.66 6.92 3.25 12.81 3.8 19.41a2.66 2.66 0 002.19 2.47c5.2.88 5.36 4.61 5.11 8.67-.12 1.83-.06 3.67-.12 5.5-.05 2 .31 3.94 2.63 4.11 2.13.15 4.31-.16 5.08-2.94.39-1.41.08-4 2.41-3.63 2.06.3 1.75 2.67 1.69 4.22-.19 4.63 3.34 5.53 6.48 7.1 1.95 1 5.52 1.5 4.93 4.06-.64 2.76-4.14 1.9-6.54 2-4.27.25-7.61-2.22-11.06-4.15-2.74-1.53-4.94-1.72-6.94 1s-6.24 2-8.32 5.76c-1.45 2.6-5.34-.11-6-4.72-3.94.29-2.17 6.75-7 6.31a12.41 12.41 0 01-8.56-4.57c-2.49 3.88-6.7 5-10.67 2.72-2.15-1.25-3.7-1.24-5 1a5.17 5.17 0 01-3.59 2.49c-2.7.52-5.47.47-7.61-1.4-2.52-2.2.31-4.54.4-7.15-2.74.45-3.35 2.68-4.39 4.42-2.78 4.63-2.94 4.64-6.24.34-.49-.64-1.1-1.18-2.12-2.27.6 4.51-.71 5.42-4.49 4-2.63-1-5.29 1.82-8.7.1-2.95-1.5-6.9-1.2-10-3.33-1 2.62 1.12 2.77 2 3.66 1.47 1.44 2.34 3.39 1.1 4.9-1.91 2.31-4.65.95-6.91.24-1.93-.6-3.28-2.49-2-4.3 2.62-3.59.33-6.88 0-10.36-.73 3.82-.94 7.62-3.5 10.94-1.38 1.79-.58 4.17 2.09 5.1 1.17.41 2.24 1.13 1.72 2.55-.46 1.24-1.76 1.42-2.94 1.5-4.18.3-6.46-1.88-6.41-6.26 0-4 .38-8-.83-11.9-.94-3.06 1.57-4.85 3-7 .7-1.06 1.91-2.18.82-3.54a3.07 3.07 0 00-2.22-.74 2.94 2.94 0 00-3.12 2.67c-.4 3.57-2.53 7.08 0 10.78A7 7 0 01826 417c-.44 1.89-.41 4.77-2.53 5s-2-2.61-2.6-4.27c-.38-1.12-.46-2.4-2.08-2.26-3.34.29-3.35-2.55-2.68-4 1.79-3.91 1.18-7.53-.49-11.32-.71 2.06-.26 4.53-1.81 6.59-1 1.37-3.23 3.26.34 5.68 2.39 1.61.2 5.3-1.81 7.37s-3.82.66-5.58-.9c-1.29-1.15-2.11-4.26-4.46-2.4-1.85 1.46-3.37 3.79-1.46 6.58.63.91 1.25 2.49.09 3.17-1.6.93-2.4-.8-2.92-1.87-1.29-2.68-2.33-5.5-4-9.63.33 3.77.52 6.23.75 8.69.17 1.75 1.44 3.89-.29 5.11s-2.31-2.12-4.26-1.81c-.09 2.11 2.58 4.7-.34 6.25-2.58 1.36-5.35.2-7.31-1.69-1.73-1.67-2.78-1.45-4.62-.17-4.81 3.37-10.7 1.45-16 2.77-2.17.54-2.81-2.54-2.49-4.09.86-4.25-1.63-7.62-2.36-11.46.48 5.84-.95 11.63-.07 17.48.47 3.06-.82 4.28-3.55 1.79a5.83 5.83 0 00-6-1.35c-1.29.39-2.7.89-3.55-.63a2.83 2.83 0 01.66-3.68c4.9-3.31 3.82-8.42 4.06-13.05.18-3.55-1.58-7.08.26-10.73.49-1-.74-2.39-2.29-2.63-1.62 7.8-1.21 15.93-4.6 23.34-1.84 4-3.93 7.77-8 10-4.27 2.31-7.48.81-8.28-3.9-.5-3-2.06-5.18-4.5-7.76-.72 2.73.11 4.85.56 6.94.7 3.2.11 6-2.33 8.21s-4.66.38-6.83-.68c-3.5-1.7-7.14-2.09-10.62-.4-2.77 1.35-5.4 2.36-8.55 1.83-2-.34-3.06.77-3.22 2.85-.14 1.7-.58 3.51-2.61 3.76s-2.93-1.36-4-2.67a12.46 12.46 0 01-1.86-2.94 5.21 5.21 0 00-6.45-3.39c-2.84.63-6 1.45-6.92 4.89a10 10 0 01-1.75 4.07c-1.9 2.27-4.31 3.82-6.77 1.27-2.09-2.17-4.8-5.11-1.33-8.12 4.7-4.08 3.71-9.17 3-14.15-.31-2.36-1.64-4.48 1.81-5.58 1.52-.49 1.17-2.21 1.3-3.51.3-3.16-.75-6.73 3.67-8.34 1.67-.61-.06-2.29-.42-3.44a12 12 0 00-8.43-8.14c-3.69-.89-2.53-3.73-2.66-6.05-.14-2.6 1-4.11 3.75-4.11 7.17 0 14.34-.15 21.5 0 3.39.07 4.49-.56 3.91-4.46-1.21-8.07-.88-7.85-9.12-8.14-6.79-.24-13.59 1.68-20.37-.44-2.49-.78-3.13 1.38-3.14 3.34 0 2.82.29 5.65.27 8.47 0 1.57-.63 3-2.53 3.16-2.13.15-3.08-1.21-3.18-3.05-.14-2.8 0-5.6-.36-8.4a102.85 102.85 0 000 22.46c.17-1 .32-2 .51-2.93.3-1.64 1-2.83 3-2.72a2.83 2.83 0 012.87 2.91c-.18 6.62 1.19 13.66-4.32 19.06-2.09 2.05.09 3.38.88 4.72 1.88 3.19 3.67 5.78-1.36 8.13-2.57 1.21-2.56 4.11-.1 6.24.37.33.82.56 1.22.86 1.63 1.24 5.05 1.94 4 4.31-1.4 3.09-3.44-1.7-5.66 0 2.79 3.18 3.44 6.24-2.47 7.15-.52.08-1.4.95-1.32 1.26.66 2.78.85 4.92-3.17 4.62s-8.85.32-9.87-5.29c-.59-3.24-3.24-2.82-5.14-3.73-1.49-.71-2.22.48-2.49 1.63-.33 1.34.76 1.62 1.82 1.75.33 0 .66.08 1 .1 2.86.15 3.95 2 4.54 4.52.42 1.76-.16 3.09-1.84 3.54-2.42.65-5 1-7.07-.92a15.9 15.9 0 01-1.89-2.92c-.8-1.23-1.94-2.1-3.35-1.33-1.67.91-.8 2.33-.13 3.45 2.15 3.52.92 4.57-2.73 3.78-9.89-2.11-19.82-2-29.83-1.05a71.11 71.11 0 01-13-.25c-4.49-.39-5.1-2.27-4-6.21a89 89 0 003.07-20.2c.07-2.05 1.13-5.47-3.34-3.16-2 1-2.53-.88-2.94-2.31-.73-2.59-1.42-5.41.77-7.52 1.34-1.28 2.73.32 3.93 1.13a5 5 0 012.09 3.44c.18-.27.37-.43.4-.61.3-1.87-.44-5.17 1.84-5 2.69.21 1.63 3.54 1.44 5.45-.75 7.28-1.84 14.53-2.69 21.8-.14 1.2-.7 3.16 1 3.41s2.17-1.63 2.4-3.14a112 112 0 00-1.87-42c-1.39-6.15-1.36-12.59-4.16-18.47-.53 6.5 1.61 12.75 2 19.16.17 2.65.46 5.3.49 8 0 2.19-.92 4.27-3.31 4.16-2.19-.1-1.85-2.43-1.9-4-.14-4.33 0-8.67-.21-13-.16-3.72.45-7.56-2.81-10.67-1.37-1.3-1.3-3.82-.92-5.77.53-2.7-.06-4.64-2.57-5.83a5.59 5.59 0 00-.1.81c0 2.9 2.82 7.2-1.58 8.11-3.44.71-2.64-4.12-3.71-6.41-1.84-3.9-2.77-8.23-4.6-12.14-2.07-4.42-1.33-8.31.85-12.34 3.51-6.5 7.45-6.89 12-.5a10 10 0 00-4.72-9.57c-2.76-1.88-4.54.81-6.36 2.4-2.46 2.15-5 2.23-7.86.14v6.31c1.37-.18 2.44-2.36 3.89-1.1s.08 2.83-.32 4.16a83.16 83.16 0 00-3.76 24.09c0 1.05-.58 2.31 1.05 3.37.53-4.25 1-8.27 1.54-12.29.13-1 .16-2.21 1.34-2.42s1.83.93 2.09 1.8c1.31 4.36 2.68 8.72 3.57 13.17a3.59 3.59 0 01-3.08 4.44c-4.82.82-9.17 3-13.72 4.6-2.82 1-3.85.23-4.19-2.75-.73-6.44-1.85-12.84-2.7-19.27a20.72 20.72 0 010-5.45 3.58 3.58 0 013.93-3.12c2.39 0 2.41 1.74 2.37 3.53 0 .88-.46 2 1.45 2.89v-7c0-2.2-1.12-3.46-3.3-3.47-4.36 0-5.45-1.89-3.27-5.62 2-3.38 0-3.74-2.62-3.47-3.79.4-7.53 1.51-11.39.34-1.67-.52-3.25-1-3.39-3.06-.09-1.36 0-2.79 1.23-3.6 1.8-1.15 2.54.28 3.53 1.51 1.27 1.57 3.58-3.26 4.75.59 3.81-1.92 7.8-.69 11.72-.72.68 0 1.35-.68 2.07-1.07-.34-.45-.57-.94-.72-.92-6.33 1.05-7.66-2.26-6.74-7.62.51-3-2.32-5.14-2.64-8.09v9.1c0 2.62-.53 5-3.79 4.43-3.08-.5-7.63 1.48-8.4-3.74-.38-2.56-1-4-3.83-4-5.45 0-9.4-1.73-8.06-8.95-2.92 2.45.06 6.71-3.64 7.28-3.5.54-4.48-2.8-5.85-5.25a2.51 2.51 0 00-1.11-.95c-2.53-1.16-3.76-3.1-2.44-5.62 1.7-3.27 3.18 1.23 5.1.32 0-.34.28-1 .08-1.22-5.2-4.65-3.13-10.67-3.18-16.32 0-3.13 1.95-2.86 4.05-2.8 1.22 0 2.92.49 2.92-1.66a2.33 2.33 0 00-2.39-2.63c-8.61-.14-17.22-.54-27.11.55 2.9 2.44 5.07 1.77 7 1.9 2.15.16 4.33 0 6.49.06 2.39.12 5.52-1 6.68 2a14.5 14.5 0 01-.14 10.72c-.55 1.39-2 1.63-3.42 1.54a2.81 2.81 0 01-2.79-2.41 32.1 32.1 0 00-.41-3.82c-.73 3.4-1.38 6.49 2.79 8.82 3.11 1.75 3.53 10 1.18 12.42-1.92 2-3.69-.78-5.76-.15-.76 1.32.71 4.36-2.62 4.14-2.57-.18-2.48-2.21-2.72-4-.43-3.38-1.84-5.58-5.82-5.17a5.1 5.1 0 01-4.33-2.18c-1.21-1.52-3.12-3.34-1.62-5.25 1.89-2.4 3.4.3 5.28 1.52-.41-6.42-10.21-6.46-8.51-13.85-.86 1.27-1.17 3.55-3.1 2.58-4.66-2.68-11.5-1.8-13.37-8.68-.3 0-.83 0-.88.18-2.25 5.82-2.25 5.75-8.25 3.3-3.31-1.33-6.47-3.2-11.1-3.55a11.53 11.53 0 001.87 1.47c18.8 6.72 26.07 21.15 26.39 40a324.21 324.21 0 01-4.24 59.2c-.27 1.61.24 4.37-1.94 4.63-2.38.27-2.76-2.44-3.57-4.19-4.89-10.53-10.33-20.63-21-26.59-2.12-1.18-4.21-2.72-8.54-1.58 15.3 9.62 22.1 23.23 24 39.84 1.94 16.78-5.65 30.23-23.26 38.22 6.12-.53 6.57 3.2 6.16 6.54-.48 3.82-3.4 5.89-7.3 6.3-1.32.14-2.68.09-4 .34s-2.95 1.46-2.07 2.73c3.4 4.92 2.48 10.89 4.33 16.17 1.34 3.79 2.43 7.61 5.42 10.53.81.8 1.8 1.72 1 3a3.11 3.11 0 01-3.07 1.33c-17.42-1.6-34.29 3.6-51.54 4.19-1.48.05-3.19.74-4.29-.49-1.28-1.43.14-2.83.78-4.08 4.24-8.18 5.51-17.1 6.19-26.07 1.2-15.81 1.62-31.63-2.57-47.16-1.27-4.7-3-9.19-6.47-12.8-.78-.82-1.55-2-2.9-1.46a2.17 2.17 0 00-1.12 2.56c.88 5.65-1.66 7.15-6.94 6.59-4.46-.47-6.5 2.28-6.94 6.66-.61 6.13-1.17 12.25-1.19 18.43 0 3.22.72 6.69-2.69 9.09-1.11.77-.45 2.52-.4 3.83.39 9.31.83 18.62 1.21 27.94.13 3-.06 5.92-4.13 6-3.87.08-8.67 1.91-9.09-4.79-.27-4.48-.82-8.95-1.2-13.43-.17-2 0-4-2.22-6.93-.63 6.72-.56 12.38-1.06 17.93-.28 3.06-2.69 6.19-.42 9.43.1.15-.64 1.12-1.16 1.44-3.51 2.16-7 1.18-10.57 0-2.92-1-3.5-3.37-3.54-6-.09-5.34 0-10.67-.14-16-.05-1.66.75-3.7-1.73-5.11-1.27 4.72-.3 9.32-.59 13.84-.11 1.66-.05 3.33-.06 5-.06 10.52-.05 10.45-10.29 8.56-2.55-.47-4.57-1.17-4.77-4.09-.22-3.17 3-1.77 4.62-3.44-4.77-3.31-4.57-8-3.31-12.86a4.39 4.39 0 00.09-1.49c-.1-1.27.21-3.07-1.54-3.17-1.36-.07-1.52 1.61-1.67 2.7-.47 3.29-.87 6.6-1.16 9.91-.18 2.15 0 4.34-.17 6.49-.77 10.08-5.27 9.18-12.07 6.46a3.12 3.12 0 01-1.93-3.67c.27-1.6 1.62-1.9 3-2.19 2-.42 4.35.75 6.13-1.34-.35-.42-.59-1-1-1.09-8.38-2-8.74-2.57-7.13-11 .28-1.47.58-2.94.8-4.42.27-1.78 1.14-4.44-.87-4.88-2.48-.55-2.67 2.45-3.15 4.23a58.72 58.72 0 00-1.54 8.33c-.49 4.3-.75 8.62-1.1 12.94a6.7 6.7 0 01-7.8 6.29c-4.85-.74-6.09-2.44-5.09-7.61 1.13-5.88 2.44-11.73 3.77-17.57.46-2 .55-3.92-1.06-6-2 2-2.2 4.54-2.79 6.83-1.41 5.48-2.68 11-4 16.51-1.77 7.56-2.14 7.86-10.1 7.88-6.67 0-8.23 1.26-8.84 6.77-.27 2.4.32 3.84 2.92 2.56 11.68-5.78 24.47-4.22 36.79-5.45 18.71-1.85 37.5-2.8 56.26-4.24 5-.38 8.81-3.78 13.15-5.81 3.21-1.5 5.23-1.72 6 2.51.58 3.24 2.72 5.62 5.24 7.7 1.06.88 3.21 1.4 2.59 3.21-.71 2.06-3 2.27-4.71 1.79-5.33-1.47-10.58-.53-15.85.14-27.57 3.49-55.14 7-82.71 10.49-33.34 4.17-66.49 10.09-100.32 9.67-12.27-.16-24.57 1.59-36.85 2.49-8.07.59-15.85.63-20.12-8.2-1.07-2.23-3.18-1.9-5.25-1.65-15.87 1.87-31.71 4-47.62 5.39C24 524.21 12 524.22 0 524.69zm442-364l4 4c-4.49 2.94-8.23-2.66-13.23-1.1 4.48 5.47 3.48 12.15 5.07 18.21s1.42 12.69 1.65 19.51c1.79-1.65 3.06-3 4.49-4.08.86-.67 2.06-1.58 3-.22a2 2 0 01-.82 3c-2.21 1.34-2.69 3.69-3.68 5.77A18.06 18.06 0 01440 207c-1.83 2.13-4.42 2.38-6.91 1.61-2.88-.89-1.38-3.31-1.3-5.12.35-8.71-.87-17.26-2.46-25.79-1.12-6-4-10-10.34-11.19-3.41-.66-6.7-2-10.05-3-1.1-.33-2.46-1.12-3.29-.18-1.19 1.34.4 2.43 1 3.45 6.46 10.5 10.23 22 12.75 34 .38 1.84 1.33 4.34-1.61 4.89-3.21.61-3.79-1.82-4.07-4.34-1.22-11-5.13-21-10.45-30.52-4.86-8.7-8.83-11.31-19.15-12.84-.13 1.72 1.91 3.33-.31 5.8-3.29-7.67-10.47-9.06-17.19-11.22-4.12-1.33-8.3-2.49-12.4-3.87-1.93-.66-4.33-1-4.89-4.34 7.42 1.24 14 4.88 21.28 5.78-.13-2.14-2.83-2.61-1.53-5.52 5.72 5.31 11.45 10.54 20.26 9-3.59-5.36-9.27-7.12-14.45-9.81a42.39 42.39 0 0110.46 1.21c1.93.46 4.23-.18 5.6 2.42s3.53 3.79 5.62.4c.81-1.31 2.65.06 3.58-1.75-9.09-5.57-21-5.14-28.59-13.75a30.32 30.32 0 005.82 5.59c1.07.89 3.37 1.64 2.35 3.23s-3 .25-4.52-.34a7.85 7.85 0 01-1.69-1.06c-7.26-5.46-15.42-6.19-24.21-5.39-8.32.76-16.21 5.82-25 2.57-1.21-.45-1.73.73-1.86 1.78-.1.77-.19 2 1.07 1.6 3.7-1.12 4.23 2.2 5.29 4 20.07 34.57 21.46 69.59 2.28 105.05-1.06 2-3.07 3.76-1.9 7.71 1.6-4.22 5.6-5.26 6.39-8.45.83-3.38 2.67-6.06 4.3-8.92 1.05-1.83 2.49-2.62 4.54-1.19.84.58 1.86 1.43 3.41-.18a20.19 20.19 0 01-2.43-1.81c-2.86-2.84-1.17-11.27 2.69-11.47 5.34-.27 4.86-3.8 5.47-7 .47-2.45.72-4.94 1-7.41.23-1.86.94-3.25 3.12-3s2.39 1.94 2.5 3.67a39.92 39.92 0 01-1.54 13.35c-1.87 6.73 1.46 11 5.72 15.44.69-1.42-.12-2.22-.45-3.11-2.2-5.88 1-10.09 7.4-9.35 1.55.18 1.88-.22 2.48-1.48 1.3-2.73-.25-8.23 4.27-7.73 5.19.58 2.05 5.73 2.54 8.81 1.2 7.66 1.05 7.7 9 7.16 3.82-.26 7.64-.51 11.45-.88 3.63-.35 5.37 1.71 5.71 4.84a65.81 65.81 0 01.35 12.95c-.87 9.95-5.69 19.07-4.54 29.65.74 6.87-3.73 13.7-5 20.92-1.14 6.5-2.39 13.34-5 19.67a9 9 0 00.32 7.33c1.35 2.76 1.18 5.69 1.45 8.63 6.64-30.77 13.22-61.49 17.27-92.69a7 7 0 00-1.32-5.61c-1.35-1.75-1.37-4.49 1.07-4.89 4.14-.68 3.42-3.18 3.15-5.81-.24-2.48-.61-5-.64-7.45 0-3.06-1.48-4.58-4.41-5-4.62-.64-9.44-.7-13.78-2.17-5.87-2-12.46-.78-17.93-4.5-1.54-1-3.6-.48-4.33 1.88-.31 1 .2 2.78-1.47 2.68s-1.55-2-1.84-3.15c-1.09-4.51.57-8.93.57-13.42 0-2.31-.33-5 2.2-6.19 3.06-1.41 3.27 2.53 5.13 3.4 1.53-.94 1.11-3.59 3.2-3.6s1.75 2 2.21 3.33c.79 2.35 2.06 1.88 3.1.23 2.61-4.14 4.62-3.73 6.4.63.29.72.95 1.66 1.6 1.8 7.1 1.52 3.34 4.42 1 7.22-1.35 1.63-2.24 3.06 1.08 3.52 5.14.72 10.24 1.74 15.55 2.67-.4-1.65-4.59-2.19-1.45-3.4 4-1.55 8.48.61 12.69 1.52 3.13.67 1.47 2 .33 3.14.58.23 1.18.69 1.74.64 1.48-.13 2.94-.62 4.42-.71 5.72-.34 7.56 1.35 7.28 7.07a52 52 0 01-1.3 9.88c-.82 3.37-.4 5.21 3.54 5 2-.13 3.73.39 4.34 2.55.72 2.49 2.64 3.14 4.86 3.65 9.08 2.11 18.13 4.4 27.22 6.44 23.72 5.32 47.49 10.42 71.44 14.57 1.55.27 3.88 1.86 4.13-1.45.11-1.47.57-2.21 2-2.14 1.25.06 2.4.54 2.58 1.91.31 2.38 1.79 3.42 3.94 3.86 15.54 3.16 30.28 9.13 45.61 13 2.1.53 4.24 1.25 6.55.77a2.73 2.73 0 00-2.33-2.28c-14.33-2.57-27.15-10.11-41.46-12.66-5.12-.91-7.92-3.74-8.91-8.72-1.47-7.34-3-14.62-2.57-22.24s-.78-8.55-8.31-8.81l-2.31-.1c3.94 4.69-3.5 2.73-2.9 5.65a8.52 8.52 0 014.57 8.19c-.11 2.21 1.84 5.06-.57 6.46-2.59 1.5-3.18-2.06-4.81-3.18-1.14-.79-2.22-2.76-3.69-1.09-1.33 1.52.21 2.69 1.44 3.6.8.6 1.64 1.15 2.44 1.74 2 1.51 2.69 3-.08 4.44-2.42 1.24-1.8 2.3.06 3.49 1.23.79 3 1.63 2.28 3.41-.74 2-2.8 1.52-4.39 1.45-5.85-.25-11.46-2.05-17.21-2.89-10.91-1.6-21.13-6-32-7.71-2.35-.36-4.12-1.65-4.13-4.24 0-2.14.37-5.91 2-5.58 5.08 1 4.61-2.36 5.4-5.16.63-2.21 2.42-3 4.61-3.14 1.26-.06 2.69.33 3.29-1.47 1.34-4-4.26-13.91-8.58-14.86-5.2-1.13-10.46-2-15.65-3.22-2.06-.47-3.75-.71-5.59.78s-4.34 2.07-5.46-.62c-1.79-4.31-5.42-3.84-9.6-4.77 1.6 2 3.15 2.07 4.49 2.59 1 .4 1.54 1 .8 2.29a11 11 0 01-11.61 5.2 4.55 4.55 0 00-3.48.23c1.75.59 3.32 1.07 4.85 1.67 1.08.42 1.66 1.21.78 2.28-1.35 1.65-3.1 2.64-5.27 2.1s-5.25-.16-6.35-3.09c-2.77-7.39.82-13.86 8.71-15.81-.5-1.16-2.57-1.53-1.89-3.17s2.26-1 3.54-1c6.4.05 12.56 1.93 18.95 3-6.23-4.84-5-14-11.54-18.22 1.68 4 3.69 7.79 5.63 11.63.6 1.19 1.27 2.67-.25 3.55s-2.61-.29-3.32-1.42a28.36 28.36 0 01-2.75-5.3c-2.95-8-6.69-15-16.57-15.64a1.39 1.39 0 01-.48-.14c-1.35-.64-3.18-1.27-2.53-3.08s2.28-.59 3.5-.39c3.52.56 6.78 2.74 11 1.83a41.77 41.77 0 00-8-10.4c3-3 5.07-.67 7.07 1.41 2.3 2.39 3.54 5.76 6.78 7.77.18-2.06-1.3-2.61-2-3.66s-2.38-2.06-1.49-3.36c1-1.51 2.72-.41 4.08 0 2 .67 3.53 2.9 6.7 2.11-4.26-3.71-7.39-8.22-13.38-7.29-4 .63-7.85-.4-11.74-1-10.6-6.46-23.39-6.07-34.48-11-.81-.36-7.92 9.28-7.46 10.06.33.55.81 1.24 1.36 1.4 7.14 2.12 14.3 4.16 22 6.36-1.13-6.21-3.91-9.17-9.14-9.62a9.07 9.07 0 01-2.83-.9c-1.39-.61-3.08-1.47-2.59-3.16.61-2.1 2.47-.93 3.76-.6 9.93 2.3 19.73 4.81 29.54 7.31zm200 78.41h-.74c0 2.65.13 5.32 0 8-.11 1.6.8 4.34-2.07 4.12-2.26-.17-1.5-2.57-1.47-4.13.2-10 .53-20-3.84-29.38-.86.93-.4 3.48-2.59 2.85-1.47-.41-1.09-2.21-1.3-3.49-.7-4.19 1.9-9.11-2.89-12.47-.42-.3.43-2.45.76-3.73s1.94-1.89 1.54-3.51c-.21-.86 0-1.73 1.07-1.89 1.25-.2 1.88.68 2.06 1.69.46 2.44.76 4.9 1.12 7.41 1.36-1.92-.84-5.66 2.56-6.16 1.69-.25 4.3 1.56 4.5 3.3.76 6.57 2.12 13.53-.67 19.64-1.44 3.15-.41 3.64 1.11 5.75a13.06 13.06 0 001.54-7.6c-.34-5.8-1.22-11.57 0-17.4.46-2.2-.83-3.77-2.57-5.48-3-2.94-6.71-4.48-10.13-6.75-.51 1.67-.18 3.47-1.33 4.82-.64.76-1.36 1.65-2.43.66-1.88-1.73.08-12 2.4-13.4-2.22-.87-4.58-1.69-6.84-2.72-6.44-3-6.66-3-6.42 4.11.82 25.28 2.4 50.54 2 75.85-.32 19-.31 38 1 56.91.09 1.28-.23 3.67.88 3.55 4.31-.46 6.58 3.72 10.71 3.94 6.62.35 13.16 2.09 19.78 2.5 5.65.34 6.93 3.18 6.73 8.11-.23 6-.05 12-.05 18-.5-7.52 1.57-14.91 1.44-22.37 0-1.6.56-3.77-1.3-4.48-3.82-1.45-3.38-4.54-3.33-7.48.26-18.46-1.69-36.91-.53-55.38.06-1.05.38-2.35-1-3.08-1.33 1.05-.8 4.09-3.47 3.53s-2.38-2.9-2.39-4.85c-.06-6.92 0-13.85 0-20.77-.46 4.16-.42 8.32-.48 12.48 0 1.06.37 2.66-1.3 2.75-1.42.08-1.91-1.33-1.94-2.47-.21-3.68-.12-7.33-.12-10.98zm102.4-18.86c0 10.5-.42 21.15.09 31.75 1.11 23.27 2.56 46.53 1.36 69.81a170.59 170.59 0 00.72 29.39c.44 3.64 1.29 7.09-5.29 8.82 7 1.4 7 5.23 7 9.17 0 4.67.1 9.33 0 14-.07 2.88.9 4.48 4 4.27s5.83.48 8 3.3c-1.24-6.31.93-12.94-3.65-18.34-1.13-1.33-.21-2.78 1.44-2.75 2.46 0 2.83-1.26 2.61-3.14a86.47 86.47 0 01-.08-19.43c.42-3.79-2.41-4.19-5.11-4.7-1.44-.27-2.75-.32-3 1.54-.45 3 1.21 4.24 3.94 4.56 1.47.18 2.58.87 2.47 2.55a4 4 0 01-1.3 3.13c-.88.68-8.58-1.15-8.78-2.21-1.23-6.54-2.05-13.12-1.31-19.83a3.38 3.38 0 011.85 1.86c1 3.58 4.08 3 6.53 3.13 1.93.14 3-1.67 3-3.37.07-3.32-3-2.3-4.81-3s-3.53-1.48-3.14-3.82c.43-2.65 2.61-1.81 4-1.42 4.41 1.28 5.25-.87 4.9-4.56a17.7 17.7 0 010-3.49c.62-5.4-.36-9.6-6.88-10.3-2-.21-3.64-1.44-2.89-3.75s2.8-.77 4.28-.83 3.2 1.87 3.84-.31.16-4.41-2.31-5.44c-1.68-.69-3.49-1.08-5.19-1.75-2.17-.86-2.24-2.88-1.86-4.65.48-2.19 2.34-1.08 3.73-1.14 2.18-.1 3.83 1.48 5.81 2.05 1-3.67.1-5.8-3.5-6.6a28.82 28.82 0 01-5.14-1.94c-1.84-.81-4.21-1.86-3.35-4.21 1.12-3 3.31-.49 5-.23 1.48.23 3.25 2.05 4.2-.48.82-2.21-.19-3.86-2.4-4.76-1.69-.69-3.38-1.41-5-2.2s-2.4-1.86-1.68-3.61 2.21-1.7 3.74-1.08c1.85.75 3.72 1.48 5.55 2.26 2.34 1 3.3-.05 2.81-2.21-1.11-4.83-.09-10.08-2.89-14.58-.47-.76-1.5-2-.19-2.5 4.16-1.49 2.23-4.84 1.95-7.11-.45-3.68-.85-7.21 0-10.87.31-1.27.86-2.94-.83-4.1-1.69 1.92-1.29 4.49-2.3 6.55-.62 1.25-.64 3.49-2.52 3s-1.29-2.69-.89-3.91c1.58-4.78.16-8-4.33-10.12-.93-.47-1.51-1.64-2.2-2.4zM239.62 102.8c5.24 2.18 4.77 4.26.89 6.63-1.23.76-1.33 2.22-1.42 3.57-.23 3.48-.38 7-.77 10.44-.47 4.24 1.11 6.13 5.53 6.05 12.8-.24 25.59.09 38.38.83 7.13.41 7.12.11 6.75-6.82a20.26 20.26 0 01.24-4c1.06-7.33-2-10.48-9.5-9.73-5.56.55-6 0-3.89-5.47-2.95-.31-6-.42-6.67-4.36-.2-1.2-1.86-1.16-3-1.23-4.31-.23-8.61-.43-13.06-.65 1.31.64 3.33.54 2.72 2.75-.46 1.67-1.83 1.61-3.24 1.49-4.1-.3-8.19-.64-12.96.5zm574 204.36c-.54-5.11 1.41-10.39-1.53-15.22-.74-1.22.45-2.52.61-3.75.91-7 3.3-14.22-1.47-20.82-.78-1.08-.81-2.1.32-2.34 2.78-.57 2.35-2.68 2.08-4.3-1.18-7-6.85-11.74-9.31-18.13-.22-.57-1.39-.84-2.17-1.12-1.07-.39-2.4-.08-2.4 1 0 3.43-2.62 6-2.56 9.5q.25 14 .08 28c0 2.52.82 3.35 3.27 3.81 2.91.54 5.68 1.85 8.49 2.88a2.47 2.47 0 011.63 3.59c-.66 1.48-1.89.79-3 .4-1.87-.64-3.79-1.1-5.65-1.75-2.44-.87-3.85-.51-3.8 2.49.11 6.5 0 13 .17 19.49.08 3.25 8.06 8.91 11.07 8a1.91 1.91 0 001.09-1.45c-.12-3.38.82-7.24-3.23-9.19-1.65-.8-2.75-2.84-1.49-3.32 4.07-1.52 3.36-5.78 5.38-8.84 2.23 3.85 1.8 7.59 2.45 11.07zM230.8 190.49c2.75 1.71 4.1-.54 5.83-2.12 3.78-3.47 3.35-8.14 4.32-12.61 1.62-7.41-1.56-16.15-8.53-19.19-7.23-3.16-14.13-2.18-20.1 2.89-6.63 5.63-10 12.86-8.57 21.72a17.21 17.21 0 009.68 13.18c2.84 1.42 7.08 3.06 8.9.08 2.27-3.73 5.1-3.6 8.47-3.95zm534.26 194.92a167.94 167.94 0 0120.22.93c1.9.23 4.6.48 4.32-2.55-.71-7.64.65-15.24.1-22.85-.13-1.74-.39-3.18-2.22-4.09-2.71-1.33-2.53-3.37-.5-5.1 2.3-1.95 2.43-3.84.35-5.81-1.79-1.68-1.57-3 .11-4.56 2-1.94 2-4.24 0-6.09-1.71-1.56-1.73-2.74.14-3.91s2.46-2.63 1.62-4.65c-.41-1-1.2-1.76-2.31-1.44-2.42.71-1.83 3-1.94 4.64-.65 10.45-1.16 20.92-1.65 31.38-.18 3.94-.12 7.89-2.32 11.64-.14-2.6-.29-5.2-.5-8.95-1 5.78.84 10.72-1.84 15.9-2.57-3.17-2.74-6.3-2.77-9.39-.09-10-.06-20-.12-30 0-3.18 1.06-6.78-3.13-8.55-.94-.39-1.31-2.17-.82-2.64 3.58-3.46 2.41-6.83.23-10.34a1.67 1.67 0 01.18-1.44c3.51-5.44-.36-11.56 1.6-17.13.08-.24-.48-.71-1.31-1.83-1.78 17.43-2.54 34.1-3.41 50.9 2.62-.75 5.22-1.16 5.7 2s-2.19 2.65-4.11 2.34c-3-.49-2.21 1.72-2.38 3.18a178.27 178.27 0 00-1 21.92c-.05 2.28.06 4.64-2.24 6.49zM428.82 136.25c-3.08-1.12-6.14-2.33-9.26-3.33-7.37-2.39-11.63-7.74-11.79-15.48a37.18 37.18 0 00-1.72-9.77c-.72-2.45-2-3.71-4.57-3.67-3 0-6-.2-9 .12-5.63.62-8.07 6.29-4.75 10.81 1.15 1.58 2.18 3.2 1 5-1.79 2.82-.34 3.77 2.08 4.6 2.2.76 4.32 1.77 6.47 2.65 1.5.61 2.8.84 3.78-1 .76-1.43 1.07-4.26 3.61-3 2.28 1.18 4.72 3 3.46 6.28-.84 2.19.46 2.56 1.9 3.19 13.85 6.07 27.94 11.62 41.34 18.7 1 .52 2.18 1.4 3-.12.69-1.33-.24-2.3-1.33-2.83-4.19-2-8.43-4-12.64-6-1.94-.93-4.32-1.56-5.18-3.69-2.8-7-9.58-9.71-14.74-14.19 2.52 4.08 6.72 6.75 8.34 11.73zM204.67 362.82c-4 1.19-5.53 3.4-5.08 7.14.48 4-.41 7.5-4.11 9 4.71 4.06 8.14 8.86 8.35 15.36.21 6.14.25 12.3 0 18.44-.13 4.09 1.54 4.2 4.46 2.61 1.31-.71 2.67-1.39 3.26-2.92 1.58-4.1 2.36-8.52 5.12-12.16a3.1 3.1 0 00.1-3.75c-2.27-3.27-2.13-6.83-1.34-10.54.61-2.84-.19-4.89-3.59-5.2a40.51 40.51 0 01-6.36-1.11c-1.63-.42-4.13-.29-3.94-2.86s2.37-2.36 4.23-2.33c.66 0 1.32.11 2 .18 1.7.16 1.77-1.09 2-2.26s.07-2.32-1.59-2.4c-4.82-.28-6.34-2.39-3.51-7.2zm283.05-179.49c-4.2-3.74-8.58-7.26-13.78-9.63-1.2-.54-2.68-1.27-3.52.33s.82 2.49 1.89 2.94c4 1.72 6.28 5.46 9.71 7.73 10.79 7.12 19.93 16.11 29.07 25.12 5.32 5.25 8.12 5.69 15 2.55 2.68-1.23 3.48-2.61.66-4.56-.89-.62-1.83-1.17-2.82-1.8-.49 1.7 1.37 3.42-.8 4.89-2.81-3-4.23-6.74-5.68-10.35-1.85-4.64-5.35-7.37-9.85-7.12-7 .38-12.21-4.28-18.54-5.59a6.75 6.75 0 01-4.67-3.26c.98-2.01 2.35.31 3.33-1.25zm-364.3 131.53c1.5-.34 2.1-.29 2.43-.57 6.42-5.49 12.8-10.94 21.56-12.59 2.35-.44 2.51-2.33.4-4-1.87-1.45-4.56-3 .09-4.45 1.79-.56 1.11-2.18.36-2.78-3.91-3.14-8.62-4.87-13.11-7-.33-.15-1.28.15-1.3.32-.34 2.9-3.59 4-4.26 6.43-2.17 8.01-4.04 16.03-6.17 24.64zm287.39 75.38c-5.65-1.69-4.21-6.44-4.59-10.07s-1.25-7.39 1.68-10.42c.86-.88 2.79-1.17 2-2.86-.67-1.44-2.38-.74-3.64-.85a15.72 15.72 0 00-3 0c-4.4.45-7.19-.72-6.54-5.92.24-1.93-.68-3.19-2.87-3.14a3.39 3.39 0 00-3.5 2.9 7.48 7.48 0 007.87 9.42c3.45-.15 6.43.43 6.44 4.25s-3.51 3.25-6.07 3.42c-5.77.4-9 2.74-10.73 8-.4 1.22-1.26 2.9.19 3.56 1.61.74 2.16-1.14 2.62-2.29 1.11-2.77 2.5-5.22 5.87-5.3s6.32.79 8 4c2.19 4 1.63 8.06-.54 11.88-1.68 3-4.32 2.55-7 1.61-1-.34-2-.49-2.48.8a2.17 2.17 0 001 2.58c.94.68 2 1.21 3 1.81 1.69 1 3.79 1.57 4.59 3.62 1 2.5-2.75 2.63-2.58 5.24 2.72 0 5.41.55 8.21-.35-3.74-6.33-2.53-20.67 2.07-21.89zM98.12 346.52c-4.59-2.69-15.33-3.67-16.52-1.57-2.33 4.1-6.57 7.29-5.62 13.11.75 4.55.21 9.31.33 14 .1 3.55-.53 7.19 1 11 1.69-3.94 1.29-7.66 1.6-11.28.26-3 1.36-4.44 4.82-3.86 5.49.91 9.09-2.14 9.88-7.79.7-5-.84-6.44-7.67-7.25-1.49-.18-3.31-.14-3.37-2.15s1.77-2.33 3.23-2.18c3.99.45 7.42-1.55 12.32-2.03zm598.72 91c5.58-.75 11.26-7.38 9.77-11.82-2.2-6.53 3.38-11.16 2.92-17.06 0-.59.82-1.46 1.46-1.86 2.41-1.49 1.91-3.77 1.49-5.81-.5-2.35-2.44-3.43-4.72-3.84-6.53-1.17-10.86 3.67-9.47 10.76.51 2.61 1.44 5.14 1.12 7.84-.11.93 0 2.07-1.17 2.52-2.15.82-2.22.84-1.06 3.2 1.07 2.2 3 4.26.24 6.61-.72.62-1.75 1.42-1.35 2.46.57 1.47 2 .7 3 .64s2.09-.52 2.59.71c.44 1.06-.29 2-1 2.63-.87.84-1.98 1.55-3.82 2.97zm29.31-62c-1.66.69-1.79 1.55-1.8 2.37 0 3.28-1.13 4.92-4.84 4.23-3-.55-4.91-1.17-3.07-4.73.75-1.45-.57-1.63-1.56-1.64-5.63-.06-11.21-.89-16.88-.72-4.89.15-5 3.76-5.3 6.66-.3 3.35.92 6.48 5.37 6.6 3 .07 6-.19 8.92-.25 6-.14 12-2.35 18.08-.05 1.53.58 4-1.81 3.56-2.19-3.06-2.87-1.2-6.87-2.48-10.28zM806 387.2c5 2 9.7-.09 14.28.84 3.73.76 5-.61 4.19-4.3-1.76 3.81-5.07 3.47-8.13 2.84-3.47-.71-2.47-3.85-2.59-6.19-.22-4.15 0-8.3-.59-12.45-1.37-9.23-1.3-9.11-10.33-10.45-3-.44-3.49.45-3.25 3.1.5 5.63 1.92 11.15 1.72 16.85-.09 2.76 1.54 3.79 4.07 3.95 1.44.09 3.21-.16 3.64 1.84.49 2.28-.94 3.33-3.01 3.97zM244.5 404c1.91-.15 3.06-4 5.42-1.54 2 2 1.6 4.63.64 7.06-1.91 4.81-6.78 6.18-10.69 8.28-3.35 1.81-4.5.18-3.4-3.86 1.18-4.33 3-8.5 3.25-13.05.05-.83.08-1.71-.73-2.23a1.06 1.06 0 00-1.65.54c-2.18 6.59-6.92 12.26-7.09 19.56-.08 3.6 1.81 5.13 5.36 4.82 5.32-.45 9.83-3 14.27-5.64 7.6-4.46 7.85-5.56 3.92-13.3-.52-1-1-2.12-1.41-3.19-1.2-2.82-2.63-6.19-6.21-5.24s-1.93 4.66-2 7.31c-.01.1.17.24.32.48zm366.85-258.59a188.36 188.36 0 0024.65 9.84c9.5 3.08 9.26 3.37 8.82-6.88-.16-3.62-1.68-4.49-4.93-4.43-6.66.14-13.32-.08-20 0-2.72.06-5.6-.41-8.54 1.47zM799.92 321c2.39 2 6.55 3.65 2.59 5.31-5.61 2.35-3.8 3.92-.76 6.46 1.55 1.3 2.27 2.74-.14 3.74-3.81 1.59-3.18 3.85-.7 5.8 2.68 2.11 2.65 3.7.31 6-1.44 1.43-1.64 4 .5 4.52 2.71.65 5.68 1.72 8.57.44a1.5 1.5 0 000-1.36c-2.76-2.39-1-4.26.1-6.78s1.83-6-2.56-7.17a2.37 2.37 0 01-1.57-2.35c0-1 .56-1.45 1.48-1.68s2.8 1.51 3-1.09c.13-2-.24-3.61-2.33-4.46-1.28-.51-2.35-1.3-2.12-3 .27-1.95 2.31-.6 3.16-1.7-2.64-1.76-5.63-1.9-9.53-2.68zM623.36 173.34c2.85 1 4.75 2.22 6.57 2.12 3-.17 8.41-1 8.49-1.92.49-5.19 3-2.3 4.61-1.5 4.37 2.16 3.67-.76 3.47-3.7-1.06 3.72-3.12 2.74-5.23 1.65-4-2.08-8-4.17-12-6.2q-12.3-6.24-24.63-12.44c.87 1.74 2.49 2.59 3.31 3.92 4 6.46 8.47 11.44 17.16 10.74 2.83-.23 3.88 2.35 1.28 4.79-.68.66-1.46 1.2-3.03 2.54zm-138.45-2c-3.92 0-6.4-2.39-10.25-2.94 2.55 3.27 5.71 3.89 8.62 4.73 4.4 1.28 8.41 3.15 11.59 6.49 4.13 4.33 8.38 7.27 14 2.28.64-.57 2.26.33 2.46-1.05s-1.09-2-2.12-2.43c-6.39-2.42-12.09-6.14-18.1-9.28-3-1.57-5.65-2.93-5.19-7.57-1.56 5.73-4.9 2-8.34 2 3.27 2.3 6.23 3.86 7.33 7.77zm278.4 54.73v39.36a8.49 8.49 0 00.42 2.93 2.61 2.61 0 002.83 1.6 2 2 0 001.84-2c-.39-8 2.12-16.07-.92-24-.78-2-3.23-4.94 1.59-6.58 1.95-.66 1.46-4.55.11-6.33-2.53-3.32-.92 1.72-2.37 1.43a3.85 3.85 0 01-2.07-1.14 5.75 5.75 0 01-1.43-5.27zM456.87 265.7v-.1h10.44c1.51 0 3.13-.28 3.29-2.27s-1.19-2.69-2.73-3a102.07 102.07 0 00-31.64-.72c-1.62.2-3.51.7-3.2 3 .27 2 2 1.81 3.51 1.9zm-29.45 45.77c7.28 6.88 9.13 15.33 10.08 24.18.93-5.24-.95-9.89-1.79-14.7-.17-.95-.4-2.19.73-2.64s1.86.66 2.14 1.55c2.46 8 5 15.91 1.38 24.25a47.13 47.13 0 01-9.5 14.69c8.92-3.8 13.66-10.9 14.16-20 .63-11.69-2.35-22.32-13.68-30 .68 2.71 3.14 3.74 2.4 6-2.34-.12-2.86-2.86-5.92-3.33zm66.28-108.18c-8.3-3-12.91-10.06-18.22-16.31-1.07-1.25-1.74-2.89-3.41-3.5-1.17-.43-2.85-.55-2.08 1.29 1.16 2.77.72 6 2.6 8.48 5.89 7.92 19.8 14.09 30.45 13.27-5.62-4.44-10.54-9.31-17.37-13.58 2.92 4.15 6.6 6.32 8.03 10.35zm-83.1 84.1c4.31-1.66 7.31-2.09 9.42 2.63 1 2.16 3.8 2.51 6.2 1.68 1.73-.6 1.94-2.26 1.61-3.75-1.55-6.86-5.73-12.17-10.6-17a3.53 3.53 0 00-4.63 0c-1.82 1.34-.38 2.81.31 3.9 2.98 4.74 3.48 8.94-2.31 12.54zm-186.75 18.19a22.54 22.54 0 00-.27-4.16c-.67-2.66 0-6.5-2.72-7.57s-5.09 1.93-7.29 3.48c-5.71 4-5.39 8.72.49 12.09a14.69 14.69 0 001.73 1c2.25.92 4.59 3.74 6.65 2.44s1.23-4.86 1.41-7.28zm.66 69.08c-1.15 2.16-5.68 4.28-2.32 6.36 4.34 2.69 4 5.79 3.41 9.73a60.65 60.65 0 00-.39 8.43c-.05 3 1.91 3.59 4.35 3.14s2-2.65 2.14-4.38c.6-6.12-1.59-12.6 2.63-18.29A2.47 2.47 0 00233 376c-1.89-.46-3 1.08-3.54 2.77-.36 1-.25 2.6-1.8 2.55s-2.17-1.45-2.52-2.73a31.49 31.49 0 01-.63-3.93zm399.6-30.5a25.3 25.3 0 00-11.73-2.16c-1.42.07-3.41.72-3.54-1.48-.15-2.48 2.11-2.12 3.65-2.17 3.63-.1 7.27 0 10.91 0 0-.49 0-1 .05-1.48-5-.65-10.07-1.32-15.11-1.93-1-.12-2.23.11-2.58 1.12-1.17 3.46-.45 6.88.63 10.22.89 2.79 3.39 3.42 5.85 3.94 1.17.25 2.89.16 3.15-.87 1.21-4.65 4.83-4.86 8.72-5.19zm-18.47 58c-3.31-16.46-9.18-31.95-16.5-46.9.32 4.08 3.48 7.37 3.11 12.2-3.2-1.85-3.12-5.45-6-7zM251 360.8c-3.3-.15-5.74 1.33-6.13 4.57a45.54 45.54 0 003.52 24.26c.48 1.08 1.37 2.11 2.7 1.63 1.61-.57.77-2 .6-3-.9-5.38-2-10.74-2.84-16.13-.45-2.84.06-5.25 3.47-6.13 1.46-.38 3.61-.83 2.84-3.21-.68-1.94-2.54-1.95-4.16-1.99zm49.83-200c5.69 1.17 8.32 3.36 7.46 8.47-.8 4.78-4.38 3-7 3.38-1.65.27-3.07.8-2.86 2.71.27 2.35 3 4 4.1 3.44 4.18-2.07 8.49-1 12.71-1.45 1.05-.12 2-.43 2.27-1.57s.09-2.71-1.07-3c-3.79-1-4.15-4.15-5.21-7.13-1.86-5.05-5.14-6.79-10.45-4.8zm-22.7 203.26c15.32 5.66 33.74 6.89 41.07 2.65-14.09-3.05-27.62-2.94-41.12-2.6zm299.56 26c2.16 6.88 6.64 10.16 11.65 9.45 1.57-.22 3-.65 3.28-2.47s-1.1-2.25-2.38-2.7c-4.51-1.59-5.77-4.88-5.44-9.42a53.11 53.11 0 00-.52-9.41c-.12-1.07-.68-2.54-2.14-2.33-1.72.26-1 1.77-1 2.84.12 4.15.19 8.31.44 12.45.15 2.83-.46 4.11-3.94 1.63zm-367.63-279.8c4.1 2 2.47 6 3.95 7.58s5.21.6 7.89 1.14c1.6.32 1.23 2.08 1.43 3.37.24 1.46-.78 3.38 1.88 4.42 1-4 .6-8 .72-11.83.21-7.3-.17-7.57-7.14-6.28zm14.58 124a36.67 36.67 0 000-4.45c-.3-2.41-1.1-4.69-4-4.76s-4 2-4.26 4.51c-.24 2.78-.13 5.6-.1 8.4 0 2.38.16 5.06 3.27 5.14s4.89-1.74 5.12-4.89c.05-1.28-.03-2.6-.03-3.92zm200.94-15.77c-4.06-1.49-4.71 1-4.41 4.4.23 2.49.68 5 .92 7.44s1.61 2.95 3.72 3c5.35.25 4.31-4.23 5.06-7 1.97-7.33 1.81-7.33-5.29-7.81zm-216 17.53c0-2.74.12-4.07 0-5.38-.3-2.54-.93-5.33-4-5.4s-4.13 2.43-4.32 5.11c-.16 2.31-.06 4.63 0 6.94.07 2.91.16 6.1 4.22 5.87 3.61-.21 4.43-2.92 4.22-6.08-.08-.79-.13-1.62-.09-1.03zm254 46.14c-9.09-2.9-16.75-6.79-25.58-5.17-1.27.24-3.16-.08-3.47 1.34-.4 1.88 1.69 2.47 3 2.76 8.12 1.91 16.26 4.73 26.06 1.1zM862 321.07c.58 16.95-1.42 33.8-1.74 50.72-.09 4.66-1.87 9.17-1 13.86.2 1.15-.54 3.12 1.5 3 1.42-.08 1.23-1.79 1.24-2.9v-64.68zm-44 57.69c2.22-1.25 3.11-3.3 5-2 .92.61 1.58.55 1.64-.65.23-4.67.68-9.79-2-13.53-2-2.78-3.29-3.82.29-5.85 1.23-.7.85-2.42.13-3.64a2.44 2.44 0 00-2.64-1c-1 .16-1.07 1.1-1.13 1.94-.51 7.97 1.41 16.04-1.29 24.73zM783.63 263.3c0-2.65.17-5.31-.06-7.93-.2-2.23-2.36-2.55-4-3.14-.78-.27-1.18.44-1.15 1.16.29 6.94.57 13.87 1 20.8a1.83 1.83 0 002 1.75c.93-.08 1.25-.93 1.42-1.79a42.48 42.48 0 00.79-10.85zm-606 105.15c7.68-.2 8.22-.76 8.13-8a23.26 23.26 0 01.21-2.48c.12-1.21 1.36-2.86-.46-3.45s-2.48 1.31-3 2.64c-1 2.71-1.54 5.2-5.71 4.52-2.17-.34-3.47 2.52-3.29 4.79.25 2.68 2.66 1.81 4.14 1.98zm360.71-172.77c-2.44-3.26-8.63-2.1-6.23-7.74a6.06 6.06 0 00-1.24-.68l-11.18-4.17c-1.85-.68-2.55.11-2.19 1.88.43 2.07.54 4.45 3.09 5.25 5.59 1.78 11.19 3.45 17.75 5.46zM345.27 322.37a20.29 20.29 0 01-2.66-14.77c.28-1.34.56-3.3-1.17-3.92s-3.08.8-4.26 1.92a5.06 5.06 0 00-1.59 5.41c1.63 4.99 4.48 8.99 9.68 11.36zm173 3.08h.59v-5.35a39.72 39.72 0 01.1-6c.48-3 2.64-5.57 5.26-5.57 2.79 0 1.74 3.34 2 5.35.07.66 0 1.34.12 2 .12.84.41 1.78 1.44 1.64.48-.07 1-.77 1.28-1.29a7.17 7.17 0 00-3.6-10.18 5.82 5.82 0 01-3.26-2.1c-.64-1-1.27-2.15-2.71-1.49s-1.16 1.93-1.17 3.06c-.05 6.66-.04 13.29-.04 19.93zm331.94 8.8c.21-19.26 1.58-38.47 2.18-57.7 0-1.3-.26-2.55-1.6-2.71-1.91-.22-1.44 1.52-1.41 2.51.22 6.64.72 13.29.79 19.93.14 12.66.05 25.31.05 37.97zM381 130.4c8.93 2.91 16.34 9.38 26.14 11-4.86-7.04-10.4-9.58-26.14-11zm194.22 186.72c5.18 3.23 10.34 6.5 15.54 9.69a25 25 0 0012.79 3.55c1.05 0 2.7.62 3-.89s-1.32-2.28-2.59-2.4c-10.38-.96-19.13-6.15-28.74-9.95zm-315.32-140a31.31 31.31 0 00-.85-4.71c-.44-1.39-1.31-2.9-3-2.88s-2.13 1.81-2.63 3.16c-1.16 3.09.11 6.21 0 9.32-.05 1.48.34 3.12 2.48 2.9 1.71-.18 3.32-.62 3.57-2.72.15-1.5.25-2.98.43-5.1zM115.3 368.39c3.12.56 4.42-1 4.24-3.84s-.57-5.57-.87-8.35a2.18 2.18 0 00-1.71-2.15c-1.25-.27-2.77 0-3 1.14a94.83 94.83 0 00-1.54 12.2c-.05 1.44 1.86.85 2.88 1zm663.07-133.28v11.43c0 2.39 1.92 2.87 3.71 3.37a1.87 1.87 0 002.35-1.26c2.44-5.01-.29-11.5-6.06-13.54zM824 292.17a134.17 134.17 0 00-.26-29.44c-.2-1.54-1-2.77-3.73-2.38 3.79 10.37.89 21.32 3.99 31.82zM166.53 419.31l1.71.05v-33.19c-1.41 11.01-2.81 22.04-1.71 33.14zm79-261.56c-1.41 2.37 5.68 5.19-1.36 6.25-1.26.19-.49 1.34-.27 2a33.25 33.25 0 011.39 9.05c6-2.15 2.62-10.13 9.07-12.26-3.31-2.28-5.96-4.14-8.83-5.04zm-29.32 325.83c-.8 1.59-1.55 3.2-2.41 4.76-1.34 2.44-2.13 5.32-5 6.57-1.17.5-3 .65-2.58 2.39s2.35 1.65 3.77 1.9A3.66 3.66 0 00214 497c1.07-2.21 2.64-2.73 4.9-1.92 1 .37 2.33.71 3.12-1.54-5.77-.93-7.7-4.32-5.81-9.96zm-39-217.4c3.62.66 6-.73 5.81-3.58-.41-5.17-5.26-3.18-8.24-4.1s-4.06 1.5-4 3.59c-.03 4.83 4.51 2.99 6.4 4.09zm353.51 35.34a36.51 36.51 0 01-2.81-13.89c0-1.53-.38-3.36-2.3-3.18s-1.32 2-1.17 3.26c.28 2.19.9 4.43-2.17 5.16-1.34.32-2.78.73-2.64 2.42.16 1.9 1.81 2.16 3.34 2.31a10.54 10.54 0 017.72 3.92zM400 530.69c-3.19-.92-6.4-1.76-9.55-2.79-3-1-6.85-.45-7.77-5-.28-1.35-2.39-.78-3.56-1.32-1-.45-2.59-.39-2.47-2 .11-1.36 1.5-1.65 2.57-2 4.13-1.5 8.21-.5 12.29.34 2.11.43 4.24.82 6.37 1.1 1.49.2 4 1.21 2-2.13-.56-.93.62-1.41 1.46-1.4 4 .07 8 .12 12 .37 1.31.09 2.71.75 2.47 2.52-.21 1.54-1.36 2-2.8 2.37-2.71.68-6.69-1.84-7.91 1.09-1 2.35.34 5.84-.05 8.83z"/><path d="M474.93 471.68c-4.77-.79-3.72-3.53-3.1-6.25.35-1.59 2.17-3.87-.37-4.7-1.8-.59-4.44-.43-5.37 2.31-.51 1.5-1.15 2.82-3.09 2.62-2.33-.23-2.2-2.1-2.71-3.74-.37 2.53-.64 5.08-1.12 7.59s-1.91 4.09-4.53 3.5c-2.44-.55-2.06-2.79-1.74-4.55.53-2.9 1.33-5.75 1-8.9-.62 2.4-1.2 4.81-1.89 7.18-.27.93-.62 2.06-1.75 2.2s-1.61-1-2.09-1.85c-2.47-4.29-3.49-8.67.3-14.34-7 4.74-4.51-3.08-8.1-3.91 2 12.12 4.51 23.63 11.45 33.67a13.08 13.08 0 003.06 2.52c.89.67 2.45 1 2.08 2.42a2.93 2.93 0 01-3.68 1.87c-9.08-2.29-17.84.07-26.67 1.49-.93.15-2.31.24-2.83-.29-1-1 .16-2.12.66-3.1a41.71 41.71 0 004.32-13.23c.18-1.29-.1-3.07 1.29-3.56 1.89-.68 2.23 1.51 3.18 2.5a11.08 11.08 0 002.52 2.5c-3.5-6.87-3.75-15.53-11.24-20.17-2.45-1.52-.73-3.24-.79-4.84-.09-2.75 1-5 3.94-5.54a54.15 54.15 0 017.95-.62c13.6-.2 24.23-7.69 29.25-20.56 1.49-3.81 2.11-8 5-11.32.41 5.42-.33 11-3.62 15.12-5.54 7-5.51 13.54-1.3 20.9 3.51-4.3-.09-9.2 1.69-13.5.36-.87 0-2.22 1.12-2.54 1.58-.44 2.05 1.12 2.29 2.08 1.05 4.14 3.49 4.68 7.33 3.81 3.54-.8 7.29-.59 10.91-1.08 4.08-.54 5.87 1.38 7.25 5.05 2.49 6.6 3.09 13.64 5.34 20.27 1.87 5.5 3.23 11.28 8.46 14.89.65.45 1.34 1.1 1 2.08A2 2 0 01508 481c-4.87-1.42-10.34 1.18-14.9-2.26-.49-.37-1.46-.77-1.81-.54-7.12 4.65-14.29-1.54-21.4.17-2 .48-2.5-.55-1.71-2.21 1.18-2.56 2.72-4.85 6.75-4.48z"/><path d="M526.57 414.2c2.73.2 5.47.48 8.29-.31-4.14-7.69-3-10.13 5.37-12.39 4-1.08 8-2.26 12-3.33 1.14-.3 2.52-.45 3.06.88s-.76 2-1.62 2.75a3.14 3.14 0 01-1.24.81c-8 1.57-9 7.57-8.89 14.19.09 7.85-1.5 15.63 2.48 23.42 2.47 4.82 2.37 11 4.06 16.39 1.29 4.16 2.38 8.34 5.83 11.37 1.51 1.32 1.64 3.17-.59 3-4.69-.4-9.43 2.88-14.18-.93-2.49-2-6.13-.07-9.17.36-11.34 1.61-12.28.61-9-10.11 1.53-5 3.21-10 2.42-15.48-2.6.17-3.06 7.45-6.6 1.2-1.26 3.6.59 6.9-.23 10.13-.27 1.05-.06 2.72-1.6 2.71-1.87 0-1.75-1.81-1.72-3 .05-3 .35-5.93.63-10-2.28 5.17-1.33 9.63-2.14 13.85a38 38 0 01-.92 4.39c-.47 1.48-1.35 2.9-3.17 2.58-2-.36-1.94-2.16-1.65-3.6.8-4.08 1.81-8.13 2.68-12.2a17.07 17.07 0 00.41-5.42c-1.55 1.5-1.75 3.44-1.86 5.43a34.32 34.32 0 01-1.94 9.77c-.38 1.06-.72 2.37-2.13 2.45-1.21.07-1.6-1.08-2-1.94-3.44-6.85-4.54-14.23-4.81-21.78-.09-2.58 1.92-2.75 3.82-2.88 5.2-.33 10.35-1.8 15.7-.44-1.31-2.44-3.55-2.59-5.54-3-8.44-1.91-16.92-3.65-25.35-5.62-2-.47-5.46-.95-5.08-3.1.53-3 3.69-1 5.5-.75a254.13 254.13 0 0139.31 9.4c5.93 1.95 5.91 2 6.21-4.44v-1c.3-7.79.27-7.56-7.17-8.73-8-1.25-15.73-4.34-24-4a6.71 6.71 0 01-1.92-.55c-1.62-.49-3.69-1.08-3.36-3 .37-2.18 2.55-1.56 4.17-1.41.79.07 1.61.52 2.33-.26.29-1.31-.79-1.72-1.57-2.24-1.94-1.29-5.31-.75-5.57-4.17-.36-4.67-.4-9.42 1.26-13.83.83-2.23 2.56-.55 3.51.46a16.85 16.85 0 014.3 9.42c.45 3.37 1.91 5 5.17 4.28 5.55-1.19 10.34 1.09 15.21 3 4.41 1.6.73 4.92 1.3 7.67z"/><path d="M496.58 374.51c-.77 7.69-1.76 15.36-2.28 23.07-.84 12.46-.73 12.48-12.83 9.89-10.74-2.3-10.88-2.51-9.31-13.44a52.64 52.64 0 00.58-5.46c.1-2.49.85-4.2 3.73-4.21 1.12 0 2.52.14 2.88-1.36a2.9 2.9 0 00-1.66-3.33c-3.71-2.06-3.84-5.06-3.26-8.94 1-6.89 1.31-13.9 2-20.85.24-2.5.92-4.7 4.28-4a2.06 2.06 0 002.71-2.12c.05-2-1.53-1.8-2.89-1.67-4 .4-3.8-2.61-3.77-5 0-3.18 2.53-2.31 4.46-2.16a3 3 0 01.49.1c4.37 1 9.55.93 12.89 3.37s.27 7.68.49 11.69c.59 10.63.26 10.76 10.76 11.82 4.63.47 9.31.36 14 .59a13.2 13.2 0 014.37.68 2.73 2.73 0 011.55 3.34c-.55 1.66-1.94.61-3 .43-1.85-.34-4.15-2.18-5.37 0-1.06 1.91.84 3.45 2.51 4.8s1.32 3.68 1.72 5.6a887.93 887.93 0 013.29 16.15c.37 1.91 1.09 4.28-1.58 5.05-2.41.69-3.2-1.46-3.63-3.2-.84-3.37-2.6-8-4.1-9.12-4.56-3.33-2.1-6.82-2.23-10.31 0-.58-.45-1.53-.86-1.63a14.3 14.3 0 00-8.83.12c-2.38 1-.86 3.47-.8 5.36.06 2.13 1.83 5.56-1 6-2.47.37-3.37-3.24-3.85-5.66a27.78 27.78 0 01-.07-5.4zm-13.08 24.71c.75-8.47 3.63-16.35 7.28-24 1.64-3.45.06-6.3-3.09-7.11-3.6-.93-2.83 2.91-3.23 4.75-1.9 8.64-1.14 17.46-.96 26.36zm-144.77 46.51c1.93-.48 2.48 2.23 4.53 1-.86-2.71-4.35-4.29-3.56-7.71.27-1.14.18-2.51 1.52-2.88 1.08-.29 1.84.67 2.37 1.51a11.1 11.1 0 004.05 4.3c2.17 1.13 2.28 2.79 2 5a39.07 39.07 0 00.88 15.85c.43 1.57.89 3.56 2.82 3.74s2.68-1.81 3.18-3.32a26.46 26.46 0 00-2.07-22.15c-1.49-2.68-2.86-5.55-6.18-6.58-.37-.12-.13-.86-1.16-.27-3.2 1.82-5.48.32-5.22-3.35a14.94 14.94 0 015.65-10.75c3-2.4 5.66-1.06 7.83 1.46 3.14 3.65 4.63 8.09 5.45 12.71a100.61 100.61 0 01-1.35 41.1c-.89 3.74-2.51 5.76-6.57 4.19-2.48-1-3.77 0-4.38 2.43-.3 1.19 0 3-1.93 3a2.67 2.67 0 01-2.45-2.22c-.46-7.29-6.42-13.44-4.06-21.44.8-2.7-1.82-5.71-1.37-8.92a51.22 51.22 0 00.02-6.7zm327.82-101.22c1.91-18.76.78-35.59 1.29-52.39.38-12.3 1.52-24.59 1.43-36.88-.07-9.15.14-18.29 0-27.42 0-2.86 2.39-5.81-.35-8.78-.76-.82.65-2.42 2.12-2.8a2.54 2.54 0 013.26 1.55c.86 2.06.64 4.26.59 6.41-.53 21.64-1.14 43.28-1.6 64.92-.46 21.31-.76 42.62-1.17 63.93-.07 3.64-.3 7.34-5.55 6.86-1.2-.11-2.79-.39-1.81-2 3.04-4.85.82-10.35 1.79-13.4zM286 520.67a48.21 48.21 0 006.95 5c-4.59 1.43-9.13.83-14.28.87 1.14-2.76 3.45-1.63 4.46-2.9-.15-1.09-1.61-.56-1.81-1.19-2-6.35-6.92-4.19-11-3.57-15.6 2.37-31.16 5-46.75 7.47-6.77 1.07-13.6.51-20.41.38a1.76 1.76 0 01-2-1.62c6.08-2.06 12.53-2.33 18.78-3.33 18-2.89 36.14-5.46 54.22-8.09 7.31-1.07 7.64-.81 10.46 5.74.23.54.95.87 1.45 1.29zm266-80.87c-1.54-.54-3 2.73-3.83 0s-1.33-6.43 1.71-8.17a17.19 17.19 0 0112.58-1.51 2.88 2.88 0 012.26 2.93c.29 5 .85 10-.32 14.9-.26 1.12-.34 2.63-1.76 2.66s-1.39-1.62-2.06-2.83c-.55 2.63-1 5.09-1.59 7.5-.33 1.28-1 2.82-2.55 2.6s-1.78-1.91-1.61-3.2c.51-3.93 1.2-7.84 1.49-11.85-.76 2.59-1.48 5.19-2.3 7.76-.3.93-.7 2.07-1.83 2.13-1.56.07-1.64-1.44-2-2.46-1.35-3.64 1.05-6.72 1.81-10.46zm-125.93 34.58c-.19 1.07-.4 2-.55 3-.41 2.68.42 6.15-3.15 7.09-3.12.83-9.2-3.58-10-6.81a38.94 38.94 0 01-1.21-5.83c-.43-4.18 1-7.16 5.61-7.82 1.48-.21 3-.38 4.41-.73 1.93-.48 4.13-1.58 5.57.28s-.66 3.43-1.82 4.54c-3.03 2.9 2.33 4 1.14 6.28zm92.1 14.06c2 .13 4.44.23 5.54 1.78 1.93 2.72 4.45 2.33 7 2.39 3.57.07 3.82 2.75 3.81 5.28 0 2.83-2.27 2.85-4.33 2.79-2.41-.08-2.23-2-2.45-3.61a1.94 1.94 0 00-1.94-1.89c-1.14-.05-1.93.43-1.86 1.74.23 4.2-1.94 3.8-4.71 2.54a36.5 36.5 0 00-3.79-1.24c-2.15-.68-3.29-1.46-.41-2.92 1-.51.71-1.4.05-2-1-.91-3.2-1.08-1.86-3.23 1.19-1.9 3.12-1.67 4.95-1.63zm166.6-302.7c-.76-6.46.64-14.39-6.11-20.06-1-.84-2.49-2.67-1.17-3.83 1.67-1.47 2.85.57 4 1.71 4.53 4.7 8.33 9.33 7.8 16.86-.27 3.71 1.23 7.66-.25 11.56-.35.94 2.66 3-.83 2.88-2.19-.06-3.79-1.28-3.76-3.77-.03-1.49.15-2.97.32-5.35zM547 411.05c0-4.83 3-6.67 7.15-4.36 1.66.91 2.79 2.11 5.26 1.58s2.88 2.8 3.53 4.59c.83 2.28-1.52 1.88-2.81 2.26-1.74.52-3.5 1-5.2 1.63-6.24 2.25-7.99 1-7.93-5.7zm124.39-236.69c-4.3 2.74-2.88 5.85-2.12 9.14.36 1.55-1.52 1.46-2.56.9a3.55 3.55 0 01-1.78-3.86c1.2-5.31-3-10.33-.56-15.75.57-1.27-1.47-2.41-2.49-3.47a27.6 27.6 0 01-3-3.29c-.84-1.21-1.8-2.93-.41-4.06s2.28.71 3.2 1.5c4.09 3.5 7 7.6 6.58 13.33a5.51 5.51 0 003.14 5.56zM472.41 500.6c2.66-2.67 5.77-3.15 8.81-3.1 4.43.06 8.85.61 13.27 1 1.86.17 2.24.85 1.06 2.54-2.93 4.19-10.53 5.94-14.21 2.6-2.57-2.33-6.17-.72-8.93-3.04zm-114.54 20c-5.2-1.24-9.68-1.32-13.06-4.43-1.21-1.12-2.58-2.52-1.5-4.28s2.67-.64 4-.15c3.62 1.33 7.63.24 11.19 1.9 1.82.85 3.13 2.08 2.48 4.23-.59 1.96-1.98 3.05-3.11 2.73zm305.46-115.2c.74 5.53 1.11 10.85-2.59 15.24-1.39 1.65-3.34 4.42-5.67 2.32-2.16-1.95-2.47-6.27-.3-7.64 4-2.52 5.8-6.32 8.56-9.92z"/><path d="M286 520.72c.05-2.32-1.51-5.81 1.89-6.23 2.66-.33 6.8-.88 7.12 4.4.17 2.74 3 2.72 5.19 2.19a11.47 11.47 0 0111.06 2.53c-7 1.24-13.11 1.21-18.57-1.17a16.85 16.85 0 00-6.75-1.77zm38.45 2.22c-2.39-.39-6.56.42-6.77-2.83-.17-2.52 4.08-1.9 6.37-2.34a82.42 82.42 0 0110.9-1c1.25-.07 2.93-.11 3.17 1.63.18 1.36-1.16 1.95-2.2 2.4a28.77 28.77 0 01-11.47 2.14zm34.16 7.2a25.48 25.48 0 01-4.41-1.38c-1.67-.88-4.75-1.16-4.43-3.24.4-2.7 3.66-2.49 5.76-2.5 3.05 0 6.06 1.4 9.17-.09 1-.48 2.43-.64 3 .77a2.74 2.74 0 01-1.32 3.42c-2.52 1.21-5.2 2.04-7.77 3.02zM400.17 219a4.63 4.63 0 012.72 2c1 1.29 1.74 3 3 3.83 1.79 1.21 2.8 2.29 1.61 4.38s-2.67 2.85-5 2.13c-2.57-.81-4.82-2.94-7.94-1.52-1 .45-1.57-.86-1.76-1.91-.17-1.3 6.04-8.91 7.37-8.91zm-179.83-36c-6.45-.55-7.35-5.15-7-10.19-2.63.55-2 2.51-3.1 3.26-1.68 1.15-3.59.42-3.12-1.2 1.49-5.11.34-11.43 6.53-14.62 2.4-1.23 4-2.5 5 1.18.53 2 2.09 2.84 3.92 3.44a34.72 34.72 0 015.54 2.15c1.47.79 3.93 1.48 2.83 3.86s-2.66.6-4.16 0c-2.84-1.1-5.2.25-7.14 2.18s-1.65 4.17-.57 6.44c.5 1.07 1.58 1.83 1.27 3.5z"/></g></g></svg>