<svg xmlns="http://www.w3.org/2000/svg" viewBox="0 0 273.23 193.51"><defs><style>.cls-1{fill:none;stroke:#ddd8bf;stroke-miterlimit:10;}</style></defs><title>compassLine</title><g id="Layer_2" data-name="Layer 2"><g id="Layer_2-2" data-name="Layer 2"><polyline class="cls-1" points="0 0.5 132.96 0.5 205.51 108.39"/><polyline class="cls-1" points="205.51 108.39 226.77 140.6 263.99 140.6"/><polyline class="cls-1" points="265.59 133.74 272.51 140.6 265.59 147.12"/><circle class="cls-1" cx="57.76" cy="115.59" r="23.33"/><circle class="cls-1" cx="58.15" cy="116.04" r="12.72"/><polyline class="cls-1" points="47.38 122.79 37.97 127.69 38.39 193.5"/><line class="cls-1" x1="69.54" y1="110.38" x2="78.71" y2="105.45"/><line class="cls-1" x1="48.7" y1="115.07" x2="48.7" y2="117.14"/><line class="cls-1" x1="67.7" y1="115.07" x2="67.7" y2="117.14"/><line class="cls-1" x1="58.7" y1="125.07" x2="58.7" y2="127.14"/><line class="cls-1" x1="58.7" y1="106.07" x2="58.7" y2="108.14"/><polygon class="cls-1" points="61.39 110.25 55.73 114.25 55.73 123.62 61.39 118.52 61.39 110.25"/><rect class="cls-1" x="57.51" y="115.53" width="2.2" height="2.31"/><line class="cls-1" x1="59.71" y1="138.85" x2="60.49" y2="193.5"/><line class="cls-1" x1="80.36" y1="121.51" x2="80.36" y2="193.5"/></g></g></svg>