<svg xmlns="http://www.w3.org/2000/svg" viewBox="0 0 754.09 379.34"><defs><style>.cls-1{fill:#9d4900;}.cls-2{fill:none;stroke:#dbd2b9;stroke-miterlimit:10;stroke-width:2px;}</style></defs><title>subMenu</title><g id="Layer_2" data-name="Layer 2"><g id="Cabin"><path class="cls-1" d="M181.51,57.89h-8V55.36h19.11v2.53h-8V78h-3Z"/><path class="cls-1" d="M213.87,83.58l-7-14.92h-3.29V78h-3V55.36h7.48c5.18,0,7.4,3,7.4,6.65,0,3.4-1.92,6-5.47,6.46l6.7,14.13c1.36,2.31,2.57,2.61,4.27,2.61a4.85,4.85,0,0,0,1.28-.15v2.49a8,8,0,0,1-2.08.27C217.61,87.82,215.5,86.53,213.87,83.58Zm-5.79-17.45c3.4,0,4.42-2,4.42-4.12s-1-4.12-4.42-4.12h-4.46v8.24Z"/><path class="cls-1" d="M232,55.36h2L243.72,78h-3.1l-2.72-6.35h-10L225.21,78h-3Zm4.87,13.86-4-9.33-4,9.33Z"/><path class="cls-1" d="M251.63,55.36h1.74l13.49,16.89V55.36h2.76V78h-1.74L254.39,61.14V78h-2.76Z"/><path class="cls-1" d="M278.55,75.76l.68-2.79a9.26,9.26,0,0,0,6.88,3.09c2.68,0,4.76-1.51,4.76-4s-1.14-3.59-5.37-4.72-6.31-3.44-6.31-6.62,2.65-5.89,7.3-5.89a10.16,10.16,0,0,1,6.15,2L292,59.33a10.06,10.06,0,0,0-5.47-2c-2.84,0-4.46,1.33-4.46,3.44,0,1.63,1,3,4.57,3.93,4.87,1.29,7.1,3.4,7.1,7.14,0,4.42-3.7,6.69-7.59,6.69A10.59,10.59,0,0,1,278.55,75.76Z"/><path class="cls-1" d="M313,75.76l.68-2.79a9.23,9.23,0,0,0,6.87,3.09c2.68,0,4.76-1.51,4.76-4s-1.13-3.59-5.36-4.72-6.31-3.44-6.31-6.62,2.64-5.89,7.29-5.89a10.2,10.2,0,0,1,6.16,2l-.68,2.46a10.09,10.09,0,0,0-5.48-2c-2.83,0-4.46,1.33-4.46,3.44,0,1.63,1,3,4.57,3.93,4.88,1.29,7.11,3.4,7.11,7.14,0,4.42-3.71,6.69-7.6,6.69A10.57,10.57,0,0,1,313,75.76Z"/><path class="cls-1" d="M337.18,55.36h3V78h-3Z"/><path class="cls-1" d="M350.3,55.36h7.48c4.61,0,6.58,2.68,6.58,5.93A6,6,0,0,1,362,65.75a6.16,6.16,0,0,1,3.59,5.63c0,3.67-2.23,6.65-7.4,6.65H350.3Zm7.48,9.37c2.83,0,3.7-1.7,3.7-3.44s-.87-3.4-3.7-3.4h-4.46v6.84Zm.38,10.77c3.4,0,4.42-2,4.42-4.12s-1-4.12-4.42-4.12h-4.84V75.5Z"/><path class="cls-1" d="M374.34,55.36h13.72v2.53h-10.7v6.92h8.81v2.53h-8.81V75.5h10.7V78H374.34Z"/><path class="cls-1" d="M406.73,74.06l-3-5.4h-3.29V78h-3V55.36h7.48c5.18,0,7.41,3,7.41,6.65a6.07,6.07,0,0,1-5.48,6.46l2.72,4.61c1.36,2.3,2.57,3,4.27,3a4.85,4.85,0,0,0,1.28-.15V78a8,8,0,0,1-2.08.26C410.47,78.29,408.36,77,406.73,74.06Zm-1.81-7.93c3.4,0,4.42-2,4.42-4.12s-1-4.12-4.42-4.12h-4.46v8.24Z"/><path class="cls-1" d="M423.18,55.36h3V78h-3Z"/><path class="cls-1" d="M443.86,55.36h2L455.57,78h-3.1l-2.72-6.35h-10L437.05,78h-2.94Zm4.87,13.86-4-9.33-4,9.33Z"/><path class="cls-1" d="M463.48,55.36h1.74l13.49,16.89V55.36h2.76V78h-1.74L466.24,61.14V78h-2.76Z"/><path class="cls-1" d="M512.36,74.06l-3-5.4h-3.29V78h-3V55.36h7.48c5.18,0,7.41,3,7.41,6.65a6.07,6.07,0,0,1-5.48,6.46l2.72,4.61c1.36,2.3,2.57,3,4.27,3a4.85,4.85,0,0,0,1.28-.15V78a7.88,7.88,0,0,1-2.07.26C516.1,78.29,514,77,512.36,74.06Zm-1.82-7.93c3.4,0,4.42-2,4.42-4.12s-1-4.12-4.42-4.12h-4.46v8.24Z"/><path class="cls-1" d="M537.73,55.36h2L549.44,78h-3.1l-2.72-6.35h-10L530.93,78H528Zm4.87,13.86-4-9.33-4,9.33Z"/><path class="cls-1" d="M557.35,55.36h3V78h-3Z"/><path class="cls-1" d="M570.47,55.36h3V75.5h10.69V78H570.47Z"/><path class="cls-1" d="M478.67,58.77l-.15-5.35a6.09,6.09,0,0,0-3.39-5.13,4.64,4.64,0,0,0-1.2-.49l1-2.14a7.78,7.78,0,0,1,1.94.77,9,9,0,0,1,4.57,7.51v6.17"/><circle class="cls-2" cx="378.34" cy="309.49" r="68.85"/><path class="cls-2" d="M401.21,330.7a10.9,10.9,0,0,1,8.56,4.14l10.08-8.22L373.91,270.3l-10.07,8.22a10.92,10.92,0,1,1-16.93,13.81l-10.08,8.22,45.93,56.32,10.08-8.22a10.92,10.92,0,0,1,8.37-17.95Z"/><circle class="cls-2" cx="357.6" cy="308.98" r="3.61"/><circle class="cls-2" cx="368.08" cy="321.13" r="3.61"/><circle class="cls-2" cx="378.34" cy="333.46" r="3.61"/><rect class="cls-2" x="366.92" y="302.81" width="38.91" height="6.69" transform="translate(378.55 -186.75) rotate(50.7)"/><line class="cls-2" x1="332.17" y1="258.41" x2="236.91" y2="121.45"/><line class="cls-2" x1="419.12" y1="254.02" x2="518.2" y2="122.47"/><line class="cls-2" x1="378.34" y1="240.64" x2="378.34" y2="121.97"/><polyline class="cls-2" points="344.2 309.49 309.49 309.49 0.71 0.71"/><polyline class="cls-2" points="403.76 306.89 447.19 306.89 753.38 0.71"/></g></g></svg>