<svg xmlns="http://www.w3.org/2000/svg" viewBox="0 0 754.08 379.34"><defs><style>.cls-1{fill:#fff;}.cls-2{fill:#9d4900;}.cls-3{fill:none;stroke:#dbd2b9;stroke-miterlimit:10;stroke-width:2px;}</style></defs><title>subMenuB</title><g id="Layer_2" data-name="Layer 2"><g id="Cabin"><polygon class="cls-1" points="447.19 306.9 309.54 306.9 0.7 0.71 753.38 0.71 447.19 306.9"/><path class="cls-2" d="M181.5,57.89h-8.05V55.36h19.12v2.53h-8V78h-3Z"/><path class="cls-2" d="M213.87,83.59l-7-14.93h-3.28V78h-3V55.36h7.49c5.17,0,7.4,3,7.4,6.65A6.07,6.07,0,0,1,210,68.47l6.7,14.14c1.36,2.3,2.57,2.61,4.27,2.61a5.33,5.33,0,0,0,1.29-.15v2.49a8.46,8.46,0,0,1-2.08.26C217.61,87.82,215.5,86.53,213.87,83.59Zm-5.79-17.46c3.4,0,4.42-2,4.42-4.12s-1-4.12-4.42-4.12h-4.46v8.24Z"/><path class="cls-2" d="M232,55.36h2L243.72,78h-3.1l-2.72-6.34h-10L225.21,78h-3Zm4.87,13.87-4-9.33-4,9.33Z"/><path class="cls-2" d="M251.63,55.36h1.74l13.49,16.89V55.36h2.76V78h-1.74L254.39,61.14V78h-2.76Z"/><path class="cls-2" d="M278.55,75.77l.68-2.8a9.24,9.24,0,0,0,6.87,3.1c2.69,0,4.76-1.51,4.76-4,0-2.3-1.13-3.59-5.36-4.72s-6.31-3.44-6.31-6.62,2.65-5.89,7.29-5.89a10.13,10.13,0,0,1,6.16,2L292,59.33a10.16,10.16,0,0,0-5.48-2c-2.83,0-4.46,1.32-4.46,3.43,0,1.63,1,3,4.58,3.94,4.87,1.28,7.1,3.4,7.1,7.14,0,4.42-3.7,6.68-7.6,6.68A10.61,10.61,0,0,1,278.55,75.77Z"/><path class="cls-2" d="M313,75.77l.68-2.8a9.26,9.26,0,0,0,6.88,3.1c2.68,0,4.76-1.51,4.76-4,0-2.3-1.13-3.59-5.37-4.72s-6.31-3.44-6.31-6.62,2.65-5.89,7.3-5.89a10.16,10.16,0,0,1,6.16,2l-.69,2.45a10.13,10.13,0,0,0-5.47-2c-2.84,0-4.46,1.32-4.46,3.43,0,1.63,1,3,4.57,3.94,4.87,1.28,7.1,3.4,7.1,7.14,0,4.42-3.7,6.68-7.59,6.68A10.66,10.66,0,0,1,313,75.77Z"/><path class="cls-2" d="M337.18,55.36h3V78h-3Z"/><path class="cls-2" d="M350.3,55.36h7.48c4.61,0,6.57,2.68,6.57,5.93A6,6,0,0,1,362,65.75a6.17,6.17,0,0,1,3.59,5.63c0,3.67-2.23,6.65-7.41,6.65H350.3Zm7.48,9.37c2.83,0,3.7-1.7,3.7-3.44s-.87-3.4-3.7-3.4h-4.46v6.84Zm.37,10.77c3.41,0,4.43-2,4.43-4.12s-1-4.12-4.43-4.12h-4.83V75.5Z"/><path class="cls-2" d="M374.34,55.36h13.71v2.53H377.36v6.92h8.8v2.53h-8.8V75.5h10.69V78H374.34Z"/><path class="cls-2" d="M406.73,74.06l-3-5.4h-3.29V78h-3V55.36h7.48c5.17,0,7.4,3,7.4,6.65,0,3.4-1.92,6-5.48,6.46l2.73,4.61c1.36,2.31,2.56,3,4.26,3a5.33,5.33,0,0,0,1.29-.15V78a8,8,0,0,1-2.08.27C410.47,78.3,408.36,77,406.73,74.06Zm-1.81-7.93c3.4,0,4.42-2,4.42-4.12s-1-4.12-4.42-4.12h-4.46v8.24Z"/><path class="cls-2" d="M423.18,55.36h3V78h-3Z"/><path class="cls-2" d="M443.85,55.36h2L455.57,78h-3.1l-2.72-6.34h-10L437.05,78h-2.94Zm4.88,13.87-4-9.33-4,9.33Z"/><path class="cls-2" d="M463.48,55.36h1.74L478.7,72.25V55.36h2.76V78h-1.74L466.24,61.14V78h-2.76Z"/><path class="cls-2" d="M512.35,74.06l-3-5.4h-3.29V78h-3V55.36h7.48c5.18,0,7.4,3,7.4,6.65,0,3.4-1.92,6-5.47,6.46l2.72,4.61c1.36,2.31,2.57,3,4.27,3a5.31,5.31,0,0,0,1.28-.15V78a8,8,0,0,1-2.08.27C516.09,78.3,514,77,512.35,74.06Zm-1.81-7.93c3.4,0,4.42-2,4.42-4.12s-1-4.12-4.42-4.12h-4.46v8.24Z"/><path class="cls-2" d="M537.72,55.36h2L549.43,78h-3.09l-2.72-6.34h-10L530.92,78H528Zm4.88,13.87-4-9.33-4,9.33Z"/><path class="cls-2" d="M557.35,55.36h3V78h-3Z"/><path class="cls-2" d="M570.46,55.36h3V75.5h10.69V78H570.46Z"/><path class="cls-2" d="M478.67,58.78l-.15-5.35a6.11,6.11,0,0,0-3.39-5.14,5.39,5.39,0,0,0-1.2-.49l1-2.14a7.85,7.85,0,0,1,1.95.77,9,9,0,0,1,4.57,7.51v6.17"/><circle class="cls-3" cx="378.34" cy="309.49" r="68.85"/><path class="cls-3" d="M401.21,330.7a10.86,10.86,0,0,1,8.55,4.15l10.08-8.23-45.93-56.31-10.07,8.21a10.93,10.93,0,1,1-16.94,13.82l-10.07,8.21,45.93,56.32,10.08-8.22a10.92,10.92,0,0,1,8.37-17.95Z"/><circle class="cls-3" cx="357.6" cy="308.98" r="3.61"/><circle class="cls-3" cx="368.07" cy="321.14" r="3.61"/><circle class="cls-3" cx="378.34" cy="333.46" r="3.61"/><rect class="cls-3" x="366.91" y="302.82" width="38.91" height="6.69" transform="translate(378.56 -186.74) rotate(50.7)"/><line class="cls-3" x1="332.17" y1="258.41" x2="236.91" y2="121.45"/><line class="cls-3" x1="419.12" y1="254.02" x2="518.19" y2="122.47"/><line class="cls-3" x1="378.34" y1="240.64" x2="378.34" y2="121.97"/><polyline class="cls-3" points="342 306.9 309.54 306.9 0.7 0.71"/><polyline class="cls-3" points="403.75 306.9 447.19 306.9 753.38 0.71"/></g></g></svg>